<?xml version="1.0" encoding="UTF-8" standalone="no"?>
<svg width="55px" height="38px" viewBox="0 0 55 38" version="1.1" xmlns="http://www.w3.org/2000/svg" xmlns:xlink="http://www.w3.org/1999/xlink">
    <!-- Generator: Sketch 43.1 (39012) - http://www.bohemiancoding.com/sketch -->
    <title>aspas fechada</title>
    <desc>Created with Sketch.</desc>
    <defs></defs>
    <g id="Page-1" stroke="none" stroke-width="1" fill="none" fill-rule="evenodd">
        <g id="home" transform="translate(-249.000000, -1708.000000)" fill="#9B9B9B">
            <path d="M254.756739,1718.35172 C250.519352,1724.64138 245.619873,1736.30345 252.24079,1742.85517 C256.478177,1747.04828 263.496349,1747.04828 267.733736,1742.85517 C271.971123,1738.53103 271.971123,1731.58621 267.601318,1727.52414 C265.482624,1725.42759 262.834257,1724.64138 260.185891,1724.37931 C258.067197,1724.11724 259.788636,1715.6 267.336481,1709.83448 L265.879879,1708 C259.788636,1711.27586 256.610595,1715.46897 254.756739,1718.35172 Z M287.861324,1718.35172 C283.623937,1724.64138 278.724458,1736.30345 285.345375,1742.85517 C289.582762,1747.04828 296.600934,1747.04828 300.838321,1742.85517 C305.075708,1738.53103 305.075708,1731.58621 300.705903,1727.52414 C298.587209,1725.42759 295.938843,1724.64138 293.290476,1724.37931 C291.171782,1724.11724 292.893221,1715.6 300.441066,1709.83448 L298.984464,1708 C292.893221,1711.27586 289.715181,1715.46897 287.861324,1718.35172 Z" id="aspas-fechada" transform="translate(276.500000, 1727.000000) scale(-1, 1) translate(-276.500000, -1727.000000) "></path>
        </g>
    </g>
</svg>