<?xml version="1.0" encoding="UTF-8" standalone="no"?>
<svg width="58px" height="41px" viewBox="0 0 58 41" version="1.1" xmlns="http://www.w3.org/2000/svg" xmlns:xlink="http://www.w3.org/1999/xlink">
    <!-- Generator: Sketch 43.1 (39012) - http://www.bohemiancoding.com/sketch -->
    <title>aspas aberta</title>
    <desc>Created with Sketch.</desc>
    <defs></defs>
    <g id="Page-1" stroke="none" stroke-width="1" fill="none" fill-rule="evenodd">
        <g id="home" transform="translate(-16.000000, -1497.000000)" fill="#9B9B9B">
            <path d="M22.0707426,1508.16897 C17.6022255,1514.95517 12.4355026,1527.53793 19.4175606,1534.6069 C23.8860777,1539.13103 31.2870591,1539.13103 35.7555762,1534.6069 C40.2240933,1529.94138 40.2240933,1522.44828 35.615935,1518.06552 C33.3816765,1515.80345 30.5888533,1514.95517 27.7960301,1514.67241 C25.5617716,1514.38966 27.3771066,1505.2 35.3366527,1498.97931 L33.8005999,1497 C27.3771066,1500.53448 24.0257188,1505.05862 22.0707426,1508.16897 Z M56.9810323,1508.16897 C52.5125153,1514.95517 47.3457924,1527.53793 54.3278503,1534.6069 C58.7963674,1539.13103 66.1973488,1539.13103 70.6658659,1534.6069 C75.134383,1529.94138 75.134383,1522.44828 70.5262248,1518.06552 C68.2919662,1515.80345 65.499143,1514.95517 62.7063199,1514.67241 C60.4720613,1514.38966 62.2873964,1505.2 70.2469424,1498.97931 L68.7108897,1497 C62.2873964,1500.53448 58.9360086,1505.05862 56.9810323,1508.16897 Z" id="aspas-aberta"></path>
        </g>
    </g>
</svg>