<?xml version="1.0" encoding="UTF-8" standalone="no"?>
<svg width="102px" height="63px" viewBox="0 0 102 63" version="1.1" xmlns="http://www.w3.org/2000/svg" xmlns:xlink="http://www.w3.org/1999/xlink">
    <!-- Generator: Sketch 43.1 (39012) - http://www.bohemiancoding.com/sketch -->
    <title>logo vivo em nos pequeno</title>
    <desc>Created with Sketch.</desc>
    <defs>
        <polygon id="path-1" points="0 0.9616 0 30.0816 18.6069931 30.0816 18.6069931 0.9616 2.71050543e-20 0.9616"></polygon>
        <polygon id="path-3" points="0.6928 31 12.3001135 31 12.3001135 0.646353303 0.6928 0.646353303"></polygon>
    </defs>
    <g id="Page-1" stroke="none" stroke-width="1" fill="none" fill-rule="evenodd">
        <g id="home" transform="translate(-16.000000, -2380.000000)">
            <g id="logo-vivo-em-nos-pequeno" transform="translate(16.000000, 2380.000000)">
                <path d="M30.91,9.2123 C31.135,9.5263 30.865,10.2003 30.775,10.6053 C30.685,10.2003 30.865,9.6613 30.91,9.2123 M22.282,7.8633 C22.237,8.1343 22.372,10.2453 22.597,10.4253 C22.552,10.0213 22.462,8.0893 22.282,7.8633 M22.282,3.3703 C22.282,3.6403 22.147,4.2243 22.282,4.3583 C22.237,3.9993 22.507,3.5503 22.282,3.3703 M22.237,6.2913 C22.192,6.6953 22.147,7.3693 22.282,7.6843 C22.372,7.2793 22.327,6.6063 22.237,6.2913 M22.282,5.9323 C22.282,5.7973 22.327,4.7633 22.237,4.8983 C22.102,4.9873 22.192,6.0223 22.282,5.9323 M22.462,1.7523 C22.102,2.2923 21.833,3.4153 22.057,4.0443 C22.013,3.1913 22.597,2.3823 22.462,1.7523 M24.035,1.1683 C24.305,1.2583 24.349,1.1233 24.619,1.1233 C24.754,1.6173 25.428,1.7523 25.517,2.2013 C25.607,2.5623 25.383,3.0563 25.383,3.3703 C25.338,3.8193 25.473,4.2243 25.428,4.6733 C25.428,10.2453 26.551,15.9523 27.405,20.8513 C27.944,16.2673 28.393,11.5493 29.292,7.1003 C29.473,6.0223 29.697,4.9873 29.922,3.9093 C30.056,2.8763 30.101,1.7523 30.64,0.8543 C30.775,0.9883 31.224,0.8093 31.135,1.1683 C31.494,0.8093 31.584,1.3933 31.988,1.3933 L31.988,1.9323 C32.258,2.1113 32.169,1.5273 32.348,1.4383 C32.573,2.2013 32.258,3.0113 32.078,3.7303 C31.719,5.3483 31.539,7.1003 31,8.6733 C30.865,8.5383 31.584,5.7073 31.808,3.9543 C31.584,4.0443 31.629,4.4933 31.449,4.6283 C31.539,5.5273 31.09,6.4263 30.91,7.3693 C30.82,7.8183 30.865,8.3583 30.775,8.8533 C30.281,11.3693 30.101,14.2903 29.652,17.3013 C29.247,19.9973 28.977,23.1433 28.843,25.9293 C28.798,26.8723 28.663,27.9063 28.798,28.7153 C28.348,29.0293 28.348,29.6583 27.764,29.7483 C27.63,29.9733 27.585,30.2423 27.45,30.4233 C27.136,30.3783 27.181,30.1533 26.821,30.1973 C26.686,30.2423 26.64,30.4233 26.776,30.5133 C26.551,30.5133 26.416,30.2423 26.191,30.3333 C26.056,30.3783 26.101,30.6033 26.012,30.6923 C25.023,30.7373 24.933,29.5683 24.754,28.4453 C24.619,27.6373 24.529,26.6033 24.394,25.7943 C24.125,24.2663 23.63,22.6043 23.45,21.1203 C22.731,15.9073 21.473,10.0663 21.743,4.3583 C21.878,3.0563 21.788,2.0223 22.462,1.3933 C22.417,1.1233 22.507,0.9883 22.552,0.8093 C23.001,0.8993 23.001,0.5843 23.36,0.7643 C23.54,0.7643 23.63,0.3593 23.764,0.4943 C24.035,0.5843 23.944,0.9883 24.035,1.1683" id="Fill-1" fill="#F78F1E"></path>
                <path d="M35.9422,0.6293 C36.0322,0.8093 35.9872,0.8993 36.0772,1.1233 C36.4812,0.7643 36.3912,1.5723 36.7962,1.3483 C36.5722,1.9773 37.1562,2.6073 37.2912,3.1463 C37.4252,3.6853 37.4252,4.4483 37.4702,4.9873 C37.6502,6.9203 37.6952,9.2123 37.7402,11.1003 C37.6952,12.4023 38.0092,13.9763 37.9642,15.3683 C37.9642,19.3683 38.0992,23.7723 37.9642,27.9063 C37.9642,28.6703 37.7402,28.9843 37.5602,29.7033 C37.0662,30.0633 36.4812,30.2423 36.0322,30.6923 C35.7622,30.5133 35.1332,30.9623 34.9542,30.4683 C34.7742,30.4683 34.8642,30.8273 34.8642,30.9173 C34.1452,30.1533 34.2352,28.6253 34.2352,27.0973 C34.1452,23.7723 34.3252,20.1323 34.1902,16.4023 C34.0552,11.4593 34.5052,6.5613 34.4152,1.5273 C34.6842,1.1683 34.9992,0.8093 35.3582,0.5843 C35.5382,0.7643 35.6722,0.6743 35.9422,0.6293" id="Fill-3" fill="#F78F1E"></path>
                <path d="M50.2772,0.3598 C50.5912,0.1348 50.8162,0.8088 50.9962,0.9888 C51.2212,1.0338 51.2212,0.6738 51.4012,0.8538 C53.2432,3.3258 52.4792,9.1228 51.7152,12.8518 C51.4462,14.1108 51.3112,15.3688 51.0412,16.7168 C50.1872,20.3568 49.7832,24.6718 48.4802,27.7718 C48.5242,27.9068 48.5242,28.0868 48.4352,28.3558 C48.2992,28.7598 47.5812,29.7488 47.1762,30.3338 C47.0872,30.4228 45.9642,31.1868 45.6482,31.1868 C45.3792,31.1868 45.1992,30.7378 44.8842,30.7828 C44.4352,30.1538 44.4352,29.2548 44.3002,28.1308 C44.0762,26.3338 43.5822,24.4008 43.2222,22.6938 C42.7272,20.3118 42.0982,17.8848 41.7392,15.4138 C41.6042,14.2008 41.2902,12.9868 41.0652,11.7738 C40.4362,8.7178 39.9412,6.9648 39.4922,3.6848 C39.3122,2.2468 39.3122,1.1238 39.8962,0.9888 C40.8402,0.7638 42.0982,1.5278 42.8622,2.1118 C42.8172,2.6068 43.1772,3.0558 43.3122,3.4158 C43.5372,4.2238 43.5372,5.2138 43.6722,6.1118 C44.0312,8.9878 44.7952,10.3358 45.2892,12.9868 C46.0082,16.6278 46.5482,20.2218 47.4462,23.6818 C48.2552,19.3238 48.7952,15.5478 49.6482,10.0208 C49.7382,9.3918 49.8282,8.6728 49.8732,7.9998 C50.0522,6.2018 50.1422,4.8528 49.9182,3.0558 C49.7832,1.9768 49.5132,0.9888 50.0072,0.2698 C50.1872,0.2248 50.1422,0.4048 50.2772,0.3598" id="Fill-5" fill="#F78F1E"></path>
                <path d="M57.4676,15.2338 C57.1976,19.3688 57.0186,26.5128 59.3106,27.7268 C61.6016,28.8498 63.0396,24.7158 63.3096,23.1878 C63.6686,21.4348 63.8036,18.3348 63.7136,15.9078 C63.3546,10.1108 62.1866,2.9658 60.4786,2.9658 C58.7256,5.0328 57.6026,13.2558 57.4676,15.2338 M62.9046,2.9208 C63.2196,3.3258 63.6686,4.1788 63.8936,4.8078 C64.4776,6.2918 65.1076,9.6618 65.4216,11.6388 C66.0506,15.8178 66.0056,19.7278 65.6466,22.8738 C65.3316,25.1658 64.9276,26.7828 63.7136,28.1758 C63.5786,28.3558 63.3546,28.5358 63.1746,28.7598 C62.7706,29.2098 62.5006,29.3438 62.0056,29.7038 C61.6466,30.0628 61.6016,30.1538 61.0176,30.3338 C58.7706,30.9178 56.6136,30.3788 55.5346,28.9398 C54.6366,27.7268 54.0076,25.1658 53.8276,23.2778 C53.5126,20.9858 53.5126,17.9748 53.6476,15.9978 C53.9176,12.8518 54.4116,8.5838 55.2656,5.9768 C55.5796,5.1228 55.8946,4.1788 56.2986,3.5048 C56.9286,2.2018 57.8266,1.0788 59.6246,0.8538 C59.7146,0.8538 59.7146,0.7638 59.7596,0.7638 C61.0626,1.2578 62.1866,1.8418 62.9046,2.9208" id="Fill-7" fill="#F78F1E"></path>
                <path d="M76.0712,0.2699 C76.2962,0.8089 77.1502,0.8539 77.3302,1.6179 C77.5092,2.2479 77.4202,3.6399 77.4202,4.7629 C77.3752,5.2129 77.3302,5.7069 77.3302,6.0219 C77.3752,6.6959 77.3752,7.3249 77.1502,7.8189 C76.6562,7.8189 76.5202,7.9989 76.4752,8.2689 C76.0712,8.1339 76.1162,8.1789 75.8012,8.0439 C75.5772,8.1339 75.5322,8.3139 75.3972,8.4489 C75.2172,8.2239 74.8582,8.3139 74.5892,8.4039 C74.1842,7.3699 74.0502,6.3359 74.1392,4.9429 C74.3642,5.1229 74.1842,5.7969 74.2742,6.1119 C74.5442,5.8419 74.2292,4.9429 74.4092,4.7629 L74.4092,4.8979 C74.4992,4.5389 74.4992,3.8199 74.3642,3.6399 C74.1842,3.9989 74.4542,4.4039 74.1392,4.6279 C74.0502,3.9989 74.3642,3.3709 74.1842,2.9209 C73.9602,2.9659 74.0502,3.3709 74.0052,3.5949 C73.9152,4.3139 73.9152,5.2569 73.8252,6.0219 C73.8252,6.0669 73.7802,6.0669 73.7802,6.0219 C73.5542,5.5729 73.8702,3.5949 73.8702,2.5169 C72.4312,2.6069 72.1622,3.9099 71.7132,5.1229 C71.3532,6.1569 71.2182,7.2349 71.2182,8.3139 C71.2182,10.3799 72.0722,12.5379 73.6442,14.7399 C75.6222,17.4809 78.1832,20.4919 78.0042,25.6149 C78.0042,27.0069 77.1502,28.5809 76.2962,29.2539 C76.1612,29.4339 75.9812,29.4789 75.8012,29.6139 C75.6672,29.7489 75.5772,29.9279 75.3972,30.0179 C74.9482,30.3329 74.1392,30.4679 73.5992,30.5129 C72.2072,30.6929 70.7682,30.3779 69.8702,29.5689 C68.7472,28.5809 67.5332,26.4679 67.9372,23.8619 C67.9822,23.5019 68.2072,23.0079 68.4322,22.6489 C68.6122,22.2899 68.7022,21.5699 68.9712,21.4349 C69.4662,21.2549 69.5102,21.7049 69.8702,21.5699 C69.9152,21.6599 69.8702,21.6599 69.8702,21.7489 C70.0502,21.9289 70.1842,21.6149 70.3642,21.7939 C70.2742,22.0649 70.4092,22.2449 70.3192,22.5589 C70.3192,22.6939 70.5442,22.6039 70.5892,22.6939 C70.8582,23.8619 70.7682,25.3449 71.2182,26.6479 C71.4882,27.3669 71.9372,28.3559 72.8362,28.0409 C73.4202,27.9069 73.9152,27.2769 74.1392,26.8729 C74.6342,25.8839 74.7232,23.8169 74.5442,22.1999 C74.3642,20.8059 73.5542,18.7839 72.8362,17.6159 C72.3862,16.8969 71.9822,16.3119 71.5782,15.7279 C71.1742,15.1439 70.7682,14.2459 70.1392,13.9309 C70.2742,14.5149 70.6782,15.0539 70.9942,15.5479 C72.0272,17.0319 73.1952,18.4689 73.7802,20.3119 C73.5092,20.3119 73.4202,19.6379 73.2402,19.3239 C73.1052,19.4139 73.2852,19.5479 73.2402,19.7279 C71.6232,16.1319 67.9822,13.2109 68.2072,8.4039 C67.8922,9.5719 68.1622,10.7399 68.1622,11.1449 C67.6232,10.2459 67.8022,8.6729 68.0272,7.5039 C68.3422,5.7069 69.3762,3.6399 70.5442,2.4259 C71.3982,1.4829 72.1622,0.9439 74.0942,1.0789 C74.3192,0.8539 74.3642,0.5839 74.7232,0.5839 C74.8582,0.3599 74.9482,0.1349 75.1282,-0.0001 C75.4422,-0.0001 75.5772,0.3149 76.0712,0.2699" id="Fill-9" fill="#F78F1E"></path>
                <g id="Group-13" transform="translate(0.000000, 0.431600)">
                    <mask id="mask-2" fill="white">
                        <use xlink:href="#path-1"></use>
                    </mask>
                    <g id="Clip-12"></g>
                    <path d="M17.3006,8.8256 C17.1656,8.8256 16.4026,8.7806 16.2676,8.9156 C16.5366,9.2296 17.8856,8.8256 17.3006,8.8256 L17.3006,8.8256 Z M10.2906,19.1616 C9.9766,19.0266 9.4376,19.1166 8.9876,19.1166 C9.1676,19.3416 10.2006,19.5206 10.2906,19.1616 L10.2906,19.1616 Z M8.9876,10.8926 L7.0106,18.8916 C7.8636,18.9816 9.2116,18.9366 10.2906,18.9366 C10.6506,17.6336 11.9536,12.0606 12.2236,10.7136 C11.2796,10.6236 9.9316,10.6686 8.9876,10.8926 L8.9876,10.8926 Z M7.6396,3.8826 C7.5046,4.7356 6.1556,8.4216 6.2006,9.1846 C6.6066,9.1396 6.5166,8.6006 6.6066,8.3316 C6.8756,7.3876 7.9536,3.7026 8.1786,2.7596 C8.1786,2.7146 8.1336,2.7146 8.0886,2.7146 C7.9986,3.1636 7.8636,3.7476 7.6396,3.8826 L7.6396,3.8826 Z M5.7516,10.8476 C5.4376,11.9266 3.9996,17.3636 3.8646,18.4866 C4.1796,17.3186 5.5276,12.0156 5.8866,10.8476 L5.7516,10.8476 Z M16.6716,1.5906 C16.8516,1.6796 16.7616,1.4556 16.9416,1.5006 C17.2556,1.9046 17.6606,2.2206 17.8856,2.6696 C17.2106,3.4326 16.2676,7.4316 15.9076,8.5116 C16.5816,8.7806 16.8516,8.1966 17.5266,8.4216 C17.5266,8.1516 18.1546,8.6006 18.5596,8.5556 C18.8286,8.8706 17.8406,9.7686 18.3796,9.9036 C18.6046,10.8926 17.4356,10.7136 15.3686,10.8036 C14.8736,12.0156 13.5716,17.6336 13.3016,19.0266 C14.6956,19.2066 14.0206,18.8916 15.4136,18.9816 C15.6386,19.0716 15.5936,18.8466 15.7736,18.8466 C16.1776,18.9366 16.5816,19.1166 16.8516,19.3416 C16.6716,19.4306 16.6266,19.6556 16.6716,19.9256 C15.9076,20.2396 14.9646,20.3296 16.1326,20.7786 L13.0316,20.9136 C12.4036,22.7116 11.9536,26.6656 11.5486,28.6426 C11.1896,28.9576 10.8296,29.2716 10.4706,29.5416 C10.2906,29.5866 10.1556,29.5416 9.9766,29.5866 C9.8416,29.5866 9.9316,29.8106 9.9316,29.9016 C9.6616,29.7656 9.2576,29.9016 9.0326,30.0816 C8.5376,29.9466 8.7176,29.3166 8.7176,28.9126 C8.6276,26.7106 9.5716,22.9806 9.8416,21.0936 C8.8526,20.9586 7.5496,21.0486 6.5166,21.0936 C6.0216,23.1606 5.2126,26.9346 4.4046,28.6876 C4.0446,28.9126 3.8206,29.2266 3.4146,29.4066 C3.1456,29.2716 2.9206,29.5416 2.6516,29.4066 C2.5166,29.4516 2.6066,29.6766 2.4716,29.6766 C2.3366,29.7216 2.2916,29.6316 2.2466,29.5866 C2.1126,29.6316 2.1126,29.7656 2.0676,29.9016 C1.9326,29.7216 1.7976,29.8106 1.5726,29.6766 C1.4386,29.6766 1.4386,29.9916 1.3036,29.8566 C1.3936,29.6316 1.2136,29.3166 1.2136,29.0476 C0.9436,28.9576 0.9886,29.3616 0.8086,29.1816 C1.2136,26.9346 2.4266,23.5196 2.8756,21.2726 C2.0676,21.0036 0.4936,21.4976 0.0446,20.8236 C0.2696,20.5986 0.6736,20.8686 0.8536,20.5986 C0.5836,20.4196 0.2246,20.5986 -0.0004,20.6436 C0.0446,20.1946 0.1346,19.7906 0.4046,19.5656 C0.7646,19.6106 0.9886,19.5656 1.1236,19.2966 C0.8536,19.1166 0.4486,19.5656 0.1346,19.3866 C0.4486,18.6666 2.2466,19.2066 3.3696,19.0266 C3.7306,17.7226 5.1226,12.1956 5.5276,10.8926 C4.7636,10.8926 3.6846,10.8476 3.1006,10.8476 C2.9656,10.7136 3.1006,10.6686 3.1906,10.6236 C3.0106,10.2626 2.2016,10.5786 2.2916,9.9936 C2.3816,9.9036 2.4266,10.0836 2.5166,10.1286 C2.4716,9.6796 2.3366,9.6346 2.3366,9.2296 C3.0556,8.6906 4.6286,8.8256 6.0216,8.7806 C7.3696,4.6906 7.6846,2.9836 8.1786,1.5006 C8.2236,1.4556 8.3136,1.4556 8.4036,1.4556 L8.4036,1.1856 C8.6276,1.3206 8.8526,1.5006 9.0326,1.7246 C9.2576,1.6796 9.2116,1.4556 9.2576,1.2756 C9.4376,1.2306 9.4376,1.3656 9.6166,1.3206 C9.5716,1.6356 9.7966,1.6796 9.8866,1.8146 C10.0666,1.8596 10.1556,1.7246 10.2456,1.6796 C10.4706,2.0856 10.9196,2.3096 11.1446,2.7596 C10.7846,3.6576 10.6506,4.7356 9.5716,8.3766 C10.2906,8.4216 10.9196,8.4666 11.5936,8.5556 C11.8186,8.6006 11.5036,8.6456 11.5936,8.8256 C11.8636,8.9606 12.4476,8.7806 12.7176,8.9156 C13.9306,4.6456 14.4696,3.1636 14.8296,1.4556 C15.0996,1.4106 15.0996,1.3206 15.2346,1.0966 C15.3686,1.3656 15.5936,1.2306 15.8636,1.3206 C15.9976,1.3206 15.9076,1.0966 15.9076,1.0066 C16.1776,0.9616 16.3576,1.2756 16.4466,0.9616 C16.6716,1.1406 16.4916,1.4556 16.6716,1.5906 L16.6716,1.5906 Z" id="Fill-11" fill="#FCDA00" mask="url(#mask-2)"></path>
                </g>
                <path d="M64.7596,32.3686 C64.8956,32.4586 64.8956,32.2336 64.9856,32.1436 C65.7036,32.2786 66.0636,32.8176 66.5126,33.2666 C69.0736,38.9296 70.5126,46.9726 72.4446,53.2646 C72.2646,48.8606 72.3996,43.7826 72.3546,38.9296 C72.3546,36.4576 72.0846,33.9406 72.7136,32.1436 C72.9836,32.0986 72.8936,32.5036 73.1176,32.5036 C73.3436,32.5036 73.1626,32.1436 73.3886,32.1436 C73.3886,32.5036 73.8826,32.2336 74.0626,32.3686 C74.1076,32.8176 74.4666,33.2226 74.5566,33.5816 C74.6016,33.7616 74.4666,34.5256 74.4666,34.9746 C74.4666,35.4696 74.6016,35.9636 74.6916,36.4126 C74.7366,36.8616 74.6466,37.3566 74.6466,37.8956 C74.6016,39.0186 74.7366,40.1876 74.7366,41.4006 C74.7366,42.5236 74.6916,43.6476 74.6916,44.7706 C74.6016,47.0626 74.7366,49.3996 74.8256,51.6466 C74.9156,52.7246 74.8256,53.8036 74.9156,54.9276 C75.0956,57.1296 75.0506,59.1056 74.9606,60.9036 C74.6916,60.9936 74.5566,61.3526 74.2866,61.4876 C73.9726,61.5776 73.9726,61.3976 73.6576,61.4426 C73.2536,61.6676 73.1176,61.3976 72.7136,61.7126 C72.3546,61.4876 72.0846,61.0836 71.7256,60.7686 C71.0966,58.9266 70.5126,57.5336 69.6576,55.1066 C68.5796,52.0966 67.4556,47.9166 66.5126,44.5466 L66.5126,46.4336 C66.5126,49.2646 66.5126,52.5006 66.4676,55.5116 C66.4676,57.9376 66.9616,60.2296 66.1086,61.5776 C65.3446,61.8026 64.7596,61.3976 64.2206,61.4426 C64.1306,59.8256 64.2656,58.2526 64.2656,56.5446 C64.2206,52.4556 64.2206,48.3216 64.2206,44.2316 L64.2206,40.7266 L64.2206,36.3676 C64.2206,36.0536 63.8616,34.4356 63.7716,34.0756 C63.5466,33.1776 63.3666,32.6386 63.9956,32.0096 C64.1756,32.1436 64.4006,32.2786 64.7596,32.3686" id="Fill-14" fill="#F78F1E"></path>
                <path d="M84.0379,61.5326 C84.3519,61.4426 85.1619,60.7686 85.1169,60.4546 C84.8029,60.4996 84.0379,61.1736 84.0379,61.5326 L84.0379,61.5326 Z M83.7679,31.1546 C83.4539,31.2896 83.2289,31.4246 83.0949,31.6946 C83.4089,31.7846 83.7239,31.4696 83.7679,31.1546 L83.7679,31.1546 Z M89.2509,24.3696 C89.3409,24.5946 88.7119,24.7286 88.4869,25.2226 C88.5319,25.4926 89.6099,25.2676 89.4309,25.6276 C89.6549,25.6726 89.3859,25.7616 89.5199,25.8966 C89.3859,26.3026 89.4309,26.0316 89.1159,26.2576 C89.2509,26.5716 88.9809,26.5716 88.8919,26.7516 L89.1609,26.9306 C88.1729,28.4586 86.5099,29.0886 84.8479,29.8516 C84.4869,30.0316 83.9479,30.2566 83.0949,30.4806 C82.2409,30.5256 82.4659,30.7056 81.7009,30.5706 C81.7469,30.3016 81.3869,30.3016 81.2969,30.0766 C81.3419,29.7176 81.1619,29.5826 81.5209,29.2226 C83.0499,27.7396 84.5329,27.2006 86.1949,25.9416 C87.0039,25.1786 88.1729,24.9086 89.1159,24.3696 L89.2509,24.3696 Z M80.6229,33.8506 C81.1619,33.0876 81.9719,32.5486 82.5109,31.7386 C81.6559,32.2336 80.9819,32.9526 80.6229,33.8506 L80.6229,33.8506 Z M84.5779,31.5586 C84.8479,31.6936 85.2069,31.7386 85.3419,32.1436 C85.3869,32.5486 85.0719,32.7726 84.9819,33.1776 C83.4089,34.5706 82.5109,36.6366 81.8369,38.7046 C79.1849,47.0626 81.3419,59.5116 83.3189,59.5116 C84.3079,59.3306 85.2519,55.3316 85.7459,52.6356 C86.5549,48.5916 87.0489,44.2766 86.1499,39.1986 C86.0599,38.5246 85.8359,37.9406 85.6559,37.2206 C85.4759,36.9516 85.4759,36.5926 85.3419,36.3676 C85.7009,36.5476 85.6559,37.1316 85.9259,37.3566 C85.8359,36.0976 85.0719,35.8736 84.8479,34.6606 C85.0269,34.4806 84.8479,34.2106 85.0269,34.3016 C85.3419,34.2556 84.9369,33.9406 85.1169,33.8506 C85.3869,33.9856 85.6109,34.1656 85.8359,34.3006 C85.9709,34.6606 86.0159,34.9296 86.2849,35.0196 C86.4649,35.0196 86.3299,34.7956 86.2849,34.7056 C86.5099,34.8406 86.4649,35.2896 86.7789,35.2896 C86.8689,34.9296 86.3749,34.5706 86.4199,34.2106 C87.3639,35.7386 88.0829,37.6266 88.4419,39.6926 C89.3409,45.6256 88.7569,52.4106 86.8239,58.2976 C86.5099,59.2856 86.0599,60.0956 85.4759,60.6786 C85.4319,60.7236 85.2519,60.9486 85.2519,60.9936 C84.7579,61.5776 84.5779,61.8026 83.4539,61.8916 C82.7349,61.9816 81.8369,61.9816 81.2069,61.5326 C79.0059,59.9156 77.8369,56.0056 77.4769,52.7246 C76.8929,47.1976 77.2079,41.6256 78.7349,36.8616 C79.4999,34.4356 80.6229,32.8626 81.8369,31.2446 C81.8369,31.3346 81.8369,31.4246 81.8819,31.5136 C82.1509,31.1996 83.2289,30.6606 83.9479,30.9746 C84.1279,31.0646 84.2629,31.3796 84.5779,31.5586 L84.5779,31.5586 Z" id="Fill-16" fill="#F78F1E"></path>
                <path d="M99.9012,31.8295 C100.1262,32.2335 100.4402,32.4585 100.6652,32.7725 C100.9342,34.3455 100.8892,35.8735 100.7552,37.3115 C100.6652,38.2105 100.7102,39.1535 100.5302,39.8275 C100.4852,40.0075 100.3502,40.2325 100.2602,40.3675 C100.3052,40.5475 99.9912,40.4125 99.9462,40.5025 C99.8562,40.5925 99.8102,40.6825 99.9012,40.9065 C99.7652,40.8615 99.3162,40.6825 99.4512,41.0415 C99.2262,40.9515 99.2262,40.9515 98.9572,40.9065 C98.6422,40.9515 98.6872,41.2665 98.4182,41.0415 C98.2832,41.1315 98.1932,41.3105 98.0132,41.4455 C96.6202,41.2665 97.1602,39.0185 97.2952,37.7165 C97.3392,36.9065 97.2502,36.1875 97.3842,35.6035 C97.2952,35.4245 97.1152,35.2445 96.9342,35.1095 C95.9912,35.8285 95.6312,36.7265 95.2272,37.7615 C94.6882,38.8845 94.4192,40.5475 94.6432,42.2995 C94.8232,44.5015 96.0362,46.5685 97.1602,48.5915 C98.2382,50.4775 99.4062,52.4555 100.2152,54.2535 C100.7102,55.6005 101.4282,57.3985 101.0242,59.0605 C100.3952,61.1735 98.7772,61.9365 96.6652,61.9365 C92.3062,61.8475 91.0922,58.4325 91.8122,54.9275 C91.9472,54.0735 92.3062,53.1295 92.9352,52.9045 C93.1602,53.0845 92.9802,53.1295 92.9802,53.4885 C93.1602,53.4435 93.2952,53.4885 93.3392,53.7135 C93.7892,53.8935 93.6542,53.4885 94.0132,53.4885 C94.0582,53.7135 94.1032,53.9835 94.3732,53.9385 C93.8342,56.0505 94.1482,58.0275 95.1372,58.7915 C95.9462,59.5115 96.8442,59.2405 97.1602,58.6565 C97.4292,57.9825 97.2502,57.3985 96.8442,56.3645 C95.9912,54.1635 91.7672,46.7485 91.1822,43.5135 C90.5532,40.5475 90.7782,37.7165 91.8122,35.6035 C92.2162,34.5705 93.0702,33.3565 94.0132,32.9075 C94.4192,32.6385 95.3172,32.4135 95.9912,32.5035 C96.4852,32.5485 96.5302,32.7725 97.1152,32.9975 C97.4292,32.3685 97.6992,31.7845 98.1482,31.3345 C98.8672,31.0645 99.4062,31.9195 99.9012,31.8295" id="Fill-18" fill="#F78F1E"></path>
                <g id="Group-22" transform="translate(30.000000, 31.431600)">
                    <mask id="mask-4" fill="white">
                        <use xlink:href="#path-3"></use>
                    </mask>
                    <g id="Clip-21"></g>
                    <path d="M7.2088,11.5424 C7.8828,11.5874 8.5578,11.6324 9.2308,11.5424 C9.2758,11.5424 9.2758,11.4974 9.1868,11.4974 C8.4678,11.4974 7.7928,11.2274 7.2088,11.5424 L7.2088,11.5424 Z M6.4898,11.4074 C6.1758,11.4524 5.9058,11.4524 5.5908,11.4524 C5.5908,11.6324 6.3548,11.4974 6.4898,11.4064 L6.4898,11.4074 Z M5.1868,3.0494 C5.0518,3.4984 5.0968,4.3524 5.2308,4.9364 L5.3658,3.0494 L5.1868,3.0494 Z M11.7478,1.3414 C11.5678,1.6554 11.5678,2.0604 12.0178,2.0154 C11.7928,2.2844 11.7928,2.5094 11.7478,3.0494 C8.8268,3.6784 7.7028,2.8234 5.5458,3.0494 C5.3208,5.3854 5.6368,8.5754 5.5458,11.1374 C6.7598,11.2714 8.1068,10.9124 9.3208,11.0924 C9.4558,11.2274 9.5008,11.4064 9.6358,11.4974 L10.2198,11.4974 C10.3548,11.5424 10.2648,11.6324 10.2198,11.8564 C10.4888,11.8124 10.7138,11.9014 10.9378,11.9014 C10.9828,12.1264 11.1628,12.3064 11.2528,12.4854 C11.1178,12.7554 11.0278,13.1144 10.9378,13.4744 C9.2308,13.7884 7.2088,13.3844 5.6368,13.9684 C5.5458,18.2374 5.7268,22.9564 5.8148,27.2254 C7.8378,27.3144 10.1298,26.6864 11.6128,27.2704 C11.3888,27.4044 11.0728,27.1804 10.8488,27.4044 C11.5228,27.4944 11.8828,27.8544 12.2868,28.2594 C12.3768,28.4384 11.9728,28.8884 12.1968,29.2024 C11.1638,29.4724 10.0848,29.6964 7.7928,29.8314 C5.4558,29.9664 5.6808,30.3704 4.6468,30.5504 C4.0188,30.6854 3.3898,30.5954 2.9838,31.0004 C2.8498,30.9104 2.8948,30.5504 2.6698,30.4604 C2.4898,30.4154 2.4898,30.5054 2.4448,30.6404 C2.0858,30.1464 1.7718,29.9214 1.2768,29.4724 C0.9628,28.9334 1.5918,28.0334 1.9058,28.3944 C1.9508,25.1124 1.7268,21.1584 1.8608,18.0134 C1.9058,16.5744 1.8158,15.1824 1.8608,13.6984 C1.6368,13.2044 1.1878,13.1594 0.9178,12.5754 C1.0528,12.3964 1.3218,12.2614 1.3668,12.0814 C1.5018,11.9464 1.9058,12.1264 1.8158,11.7674 C1.6818,11.5424 1.2768,11.9014 1.1428,11.5874 C1.4118,11.4974 1.5918,11.4524 1.8158,11.4524 C2.0408,8.8014 1.7718,5.1154 1.8158,2.7334 C1.3668,2.6444 1.5918,2.3294 1.0528,2.2844 C1.0078,1.7904 1.0078,1.8354 0.6928,1.4764 C0.9628,0.9814 0.9628,0.6674 1.5468,0.6674 C2.3108,0.6674 2.7148,0.9374 3.3448,0.8474 C3.9738,0.8474 4.6468,0.6224 5.3658,0.6674 L8.1968,0.8474 C9.0518,0.8024 9.8148,0.5774 10.3988,0.6674 C10.8938,0.7124 11.2988,1.2964 11.7478,1.3414 L11.7478,1.3414 Z" id="Fill-20" fill="#FCDA00" mask="url(#mask-4)"></path>
                </g>
                <path d="M47.5448,32.8178 C47.6798,32.9528 47.8148,33.3118 47.9038,33.6718 C48.3538,35.0198 51.0048,44.0068 52.5318,49.1748 C54.1498,43.8728 55.3178,37.8058 56.6668,32.3238 C57.0258,32.1438 57.4308,32.2788 57.6998,32.0988 C57.9248,32.2788 58.3738,32.5038 58.7338,32.3238 C58.9138,32.5478 59.5428,32.7278 59.7228,33.0428 C59.6328,34.9298 59.7228,36.7718 59.7228,38.5698 C59.7228,44.2318 59.5878,49.0858 59.6328,54.0738 C59.6328,55.3318 59.6328,56.5888 59.7228,57.9828 C59.7678,58.7018 60.2618,59.6908 59.8578,60.8138 C59.5428,60.9938 59.2738,61.3078 58.8688,61.4428 C58.6898,61.5328 58.5088,61.4878 58.2838,61.5328 C58.0598,61.6228 57.8798,61.8468 57.7448,61.8918 C57.4308,61.8918 56.9368,61.5328 56.7118,61.8918 C56.1728,61.3078 56.3078,60.5448 56.1728,59.6458 C55.7688,55.1518 55.9028,48.5908 55.9028,43.6478 C55.3628,45.8048 54.5098,50.1638 53.7458,52.1858 C53.9708,52.5458 53.9258,52.9498 53.7908,53.3988 C53.4318,54.0738 52.5318,54.1638 52.0378,54.6128 C51.7688,54.7028 51.7688,54.4328 51.4988,54.4778 C51.3638,54.5228 51.3188,54.7928 51.1398,54.7928 C50.7798,54.7478 50.1498,53.5788 49.9718,53.3088 C49.7008,52.7248 49.4768,52.0508 49.2068,51.2878 C48.4428,49.4448 47.7248,46.8828 47.0948,44.9058 C47.0948,44.6808 46.9598,44.8608 46.9148,44.7258 C46.8698,44.4118 46.7798,44.0968 46.7348,43.7378 C46.6908,46.3888 46.7798,48.9958 46.7348,51.8718 C46.6908,53.4438 46.8248,55.2868 46.7348,57.1298 C46.6908,57.9828 46.7348,59.0608 46.5108,59.6458 C46.3758,59.9608 46.2408,59.9608 46.0168,60.1398 C46.0168,60.6788 45.8818,60.9038 45.7018,61.3078 C45.0728,61.3078 44.8038,61.8468 44.0838,61.8918 C44.0838,61.6228 44.1288,61.3078 43.9488,61.1288 C44.2638,59.5108 44.1288,58.0728 44.1738,56.2298 C44.2638,54.3878 44.1738,52.4558 44.1738,50.4778 C44.1738,46.6588 44.3088,42.7498 44.4878,38.9738 C44.5338,37.3568 44.5788,35.8738 44.2188,34.6158 C44.1738,34.3898 43.9938,34.1208 43.9938,33.8958 C43.9938,33.4918 44.3538,33.0428 44.1288,32.5928 C44.4878,32.3238 44.8488,32.1888 45.1628,32.0538 C45.8818,32.3238 47.0048,32.3238 47.5448,32.8178" id="Fill-23" fill="#FCDA00"></path>
            </g>
        </g>
    </g>
</svg>