<svg id="Layer_1" data-name="Layer 1" xmlns="http://www.w3.org/2000/svg" viewBox="0 0 51 51"><title>share-whatsapp</title><g id="Page-1"><g id="homenagem-copy"><g id="Group-2"><g id="Rectangle-8-Copy"><rect id="path-1" width="51" height="51" rx="18" ry="18" fill="#de5f25"/><rect x="0.5" y="0.5" width="50" height="50" rx="18" ry="18" fill="none" stroke="#de5f25"/></g></g></g></g><path id="WhatsApp" d="M38.93,25.14A13.13,13.13,0,0,1,25.74,38.21a13.29,13.29,0,0,1-6.39-1.64l-7.28,2.36,2.39-7A13.15,13.15,0,1,1,38.93,25.14Zm-13.19-11a11,11,0,0,0-11.07,11,10.77,10.77,0,0,0,2.12,6.45l-1.37,4.09,4.27-1.34A11,11,0,1,0,25.74,14.16Zm6.66,14a2.3,2.3,0,0,0-.63-0.39c-0.33-.15-1.91-0.93-2.21-1a0.5,0.5,0,0,0-.72.15c-0.21.33-.84,1-1,1.25a0.5,0.5,0,0,1-.69.09,8.68,8.68,0,0,1-2.6-1.58,9.67,9.67,0,0,1-1.79-2.21,0.46,0.46,0,0,1,.15-0.66c0.15-.15.33-0.39,0.48-0.57a3.23,3.23,0,0,0,.33-0.54,0.55,0.55,0,0,0,0-.57c-0.09-.15-0.72-1.73-1-2.39s-0.54-.54-0.72-0.54l-0.63,0a1.29,1.29,0,0,0-.87.39,3.62,3.62,0,0,0-1.13,2.69,6.27,6.27,0,0,0,1.31,3.31,13.18,13.18,0,0,0,5.52,4.84c3.28,1.28,3.28.87,3.88,0.81a3.27,3.27,0,0,0,2.18-1.52A2.59,2.59,0,0,0,32.39,28.16Z" fill="#fff"/></svg>