<?xml version="1.0" encoding="UTF-8" standalone="no"?>
<svg width="51px" height="51px" viewBox="0 0 51 51" version="1.1" xmlns="http://www.w3.org/2000/svg" xmlns:xlink="http://www.w3.org/1999/xlink">
    <!-- Generator: Sketch 43.1 (39012) - http://www.bohemiancoding.com/sketch -->
    <title>Group</title>
    <desc>Created with Sketch.</desc>
    <defs>
        <rect id="path-1" x="0" y="0" width="51" height="51" rx="18"></rect>
    </defs>
    <g id="Page-1" stroke="none" stroke-width="1" fill="none" fill-rule="evenodd">
        <g id="homenagem-copy" transform="translate(-17.000000, -1345.000000)">
            <g id="Group" transform="translate(17.000000, 1345.000000)">
                <g id="Rectangle-8">
                    <use fill="#DE5F25" fill-rule="evenodd" xlink:href="#path-1"></use>
                    <rect stroke="#DE5F25" stroke-width="1" x="0.5" y="0.5" width="50" height="50" rx="18"></rect>
                </g>
                <path d="M27.2280524,13 C27.2280524,13 26.8669965,13.1378171 26.1448846,13.4127063 C25.0440862,13.8599289 24.2189219,14.5564639 23.6686469,15.502063 C23.1181235,16.4479103 22.8432343,17.5397693 22.8432343,18.7778881 L22.8432343,22.1567657 L19,22.1567657 L19,26.5929859 L22.8432343,26.5929859 L22.8432343,37.9938111 L27.4344056,37.9938111 L27.4344056,26.5929859 L31.2778881,26.5929859 C31.2945255,26.4730478 31.4842413,24.9938111 31.8452972,22.1567657 L31.8192237,22.1567657 L27.4344056,22.1567657 L27.4344056,19.6547028 C27.4344056,18.9671073 27.4689219,18.5370186 27.5377063,18.3649335 C27.5377063,18.2966458 27.5975512,18.1501375 27.7182343,17.926402 C27.8898227,17.6343788 28.1649603,17.4280257 28.5436469,17.3075909 C28.8016504,17.2042902 29.2742016,17.1528881 29.9622937,17.1528881 L32,17.1528881 L32,17.127063 L32,13.180528 C30.9334696,13.0605899 29.8244766,13 28.6725244,13 L28.5436469,13 L27.2280524,13 Z" id="Fill-1" fill="#FFFFFF"></path>
            </g>
        </g>
    </g>
</svg>