<?xml version="1.0" encoding="UTF-8" standalone="no"?>
<svg width="51px" height="51px" viewBox="0 0 51 51" version="1.1" xmlns="http://www.w3.org/2000/svg" xmlns:xlink="http://www.w3.org/1999/xlink">
    <!-- Generator: Sketch 43.1 (39012) - http://www.bohemiancoding.com/sketch -->
    <title>Group 2</title>
    <desc>Created with Sketch.</desc>
    <defs>
        <rect id="path-1" x="0" y="0" width="51" height="51" rx="18"></rect>
        <polygon id="path-2" points="0 22.6137592 0 -2.87974684e-05 27.8848247 -2.87974684e-05 27.8848247 22.6137592"></polygon>
    </defs>
    <g id="Page-1" stroke="none" stroke-width="1" fill="none" fill-rule="evenodd">
        <g id="homenagem-copy" transform="translate(-84.000000, -1345.000000)">
            <g id="Group-2" transform="translate(84.000000, 1345.000000)">
                <g id="Rectangle-8-Copy">
                    <use fill="#DE5F25" fill-rule="evenodd" xlink:href="#path-1"></use>
                    <rect stroke="#DE5F25" stroke-width="1" x="0.5" y="0.5" width="50" height="50" rx="18"></rect>
                </g>
                <g id="Page-1" transform="translate(13.000000, 14.000000)">
                    <mask id="mask-3" fill="white">
                        <use xlink:href="#path-2"></use>
                    </mask>
                    <g id="Clip-2"></g>
                    <path d="M13.5826557,5.65349019 L13.5826557,5.77328766 C13.5826557,6.11252184 13.6323052,6.52086994 13.7321814,6.99948386 L13.7021608,6.99948386 C13.2827381,6.99948386 12.4629443,6.90013259 11.2433567,6.70027816 C10.2038928,6.4609712 9.28422268,6.18192373 8.48550103,5.86284778 C7.62558351,5.52390158 6.70620206,5.04528766 5.72677938,4.42700601 C4.98723299,3.96855032 4.15733608,3.31052816 3.2382433,2.45293956 C2.75849072,1.97432563 2.31828454,1.5060788 1.91906804,1.04704715 C1.41882062,1.98440475 1.1691299,2.90160411 1.1691299,3.79893323 L1.1691299,4.03824019 C1.1691299,5.27480348 1.61915052,6.4609712 2.51832577,7.59760728 C2.97844948,8.11653766 3.35774845,8.45548386 3.65766598,8.61473386 L3.65766598,8.64468323 C2.8785732,8.64468323 2.0284701,8.41574335 1.10937732,7.95671171 L1.10937732,8.10645854 C1.10937732,9.60191108 1.68900619,10.9381136 2.84797526,12.1144902 C3.56818144,12.7725123 4.23729485,13.1915155 4.85733608,13.3709237 C5.27704742,13.5307497 5.53626392,13.6102307 5.63671753,13.6102307 C5.63671753,13.6505472 5.42686186,13.6997908 5.00686186,13.7596896 C4.74706804,13.800006 4.54673814,13.8195883 4.40760412,13.8195883 L4.28752165,13.8195883 L4.19774845,13.8195883 L4.1076866,13.8195883 L4.07766598,13.8195883 C3.79766598,13.8195883 3.47783093,13.7896389 3.11816082,13.7297402 C3.57770722,15.0460725 4.35737732,16.0531199 5.45688247,16.7508826 C6.43601649,17.3694522 7.42554227,17.6781611 8.42517113,17.6781611 C7.86517113,18.1371927 7.32566598,18.4962972 6.80578969,18.7551864 C5.04698557,19.6525155 3.29799588,20.1011801 1.55882062,20.1011801 L1.1691299,20.1011801 C0.789253608,20.1011801 0.399562887,20.0815978 -0.000230927835,20.0412813 C1.05915052,20.7396199 2.21840825,21.2977149 3.47783093,21.7164301 C5.21729485,22.3145535 6.98562474,22.6137592 8.78484124,22.6137592 C11.6832742,22.6137592 14.3617485,21.9459459 16.8205526,20.6097434 C17.6002227,20.1714459 18.4497485,19.5626674 19.3694186,18.7851358 C20.2489649,17.9877339 20.8482227,17.3792434 21.1683464,16.9602402 C21.9278103,16.0231706 22.5671918,15.0662307 23.087068,14.0888446 C23.4473155,13.4305345 23.7867794,12.6633699 24.1069031,11.7853351 C24.7260784,9.95093639 25.036099,8.22596804 25.036099,6.61071804 L25.036099,5.77328766 L25.036099,5.62354082 C25.3556454,5.42455032 25.8856247,4.96551867 26.6254598,4.24759778 C27.1649649,3.66934462 27.5849649,3.15127816 27.8848825,2.69224652 L27.8542845,2.69224652 C27.1349443,2.99116424 26.3852948,3.2304712 25.6059134,3.40987943 C25.0259959,3.51009462 24.7061608,3.55962627 24.6464082,3.55962627 L24.6464082,3.5296769 C24.8859959,3.43003766 25.2857897,3.1213288 25.845501,2.60239842 C26.4848825,1.84473703 26.9048825,1.117025 27.1052124,0.418686392 C26.3653773,0.85755981 25.5857072,1.2068731 24.7664907,1.46576234 C24.0465732,1.68548703 23.6164701,1.79491741 23.4770474,1.79491741 C22.9369649,1.27656297 22.527068,0.957199051 22.2476454,0.837401582 C21.3279753,0.27959462 20.3589443,-2.87974684e-05 19.3393979,-2.87974684e-05 L19.3090887,-2.87974684e-05 C17.7901608,-2.87974684e-05 16.4507794,0.548562975 15.2915216,1.64517057 C14.1521814,2.80196487 13.5826557,4.13816741 13.5826557,5.65349019" id="Fill-1" fill="#FFFFFF" mask="url(#mask-3)"></path>
                </g>
            </g>
        </g>
    </g>
</svg>