<?xml version="1.0" encoding="UTF-8" standalone="no"?>
<svg width="238px" height="594px" viewBox="0 0 238 594" version="1.1" xmlns="http://www.w3.org/2000/svg" xmlns:xlink="http://www.w3.org/1999/xlink">
    <!-- Generator: Sketch 43.1 (39012) - http://www.bohemiancoding.com/sketch -->
    <title>silhueta 2 grande</title>
    <desc>Created with Sketch.</desc>
    <defs>
        <polygon id="path-1" points="296.625067 0 0.00084375 0 0.00084375 593.868038 296.625067 593.868038"></polygon>
    </defs>
    <g id="Page-1" stroke="none" stroke-width="1" fill="none" fill-rule="evenodd">
        <g id="homenagem" transform="translate(-82.000000, -328.000000)">
            <g id="silhueta-2-grande" transform="translate(82.000000, 328.000000)">
                <mask id="mask-2" fill="white">
                    <use xlink:href="#path-1"></use>
                </mask>
                <g id="Clip-2"></g>
                <path d="M0.00084375,593.868037 C18.3372188,534.032662 51.4712813,480.0276 78.3464063,423.50985 C84.8213438,409.8951 90.9570938,396.06435 95.3091563,381.629475 C99.7540313,366.8841 102.295406,351.644287 105.786844,336.642412 C113.441344,303.739537 125.633531,272.088787 138.161531,240.716475 C140.686031,234.393412 143.303344,227.945475 147.760031,222.7986 C150.365531,219.786412 153.534656,217.3041 156.157031,214.303725 C164.451094,204.819975 166.241531,190.177537 160.475344,178.9776 C157.113844,172.445287 149.950406,166.76685 142.888219,168.793537 C139.352906,169.806037 136.610719,172.5246 134.000156,175.114912 C129.580594,179.495662 124.939969,183.876412 119.219344,186.330037 C113.502094,188.783662 106.419656,188.9676 101.428031,185.246662 C97.7205938,182.482537 95.6939063,178.057912 92.7171563,174.517537 C89.7420938,170.975475 84.6812813,168.21135 80.5958438,170.3781 C80.1267188,168.489787 79.6592813,166.601475 79.1918438,164.71485 C74.4786563,158.366475 66.7347188,154.377225 58.8287813,154.223662 C55.0470938,148.121662 60.7019063,140.63085 61.4393438,133.492725 C62.7775313,120.541162 49.1661563,112.680787 43.0202813,103.07385 C37.4194688,94.315725 35.3235938,75.52035 39.2436563,65.8627875 C37.0178438,71.3471625 34.7903438,76.82985 32.5645313,82.3125375 C32.5004063,80.6216625 32.4362813,78.9274125 32.3738438,77.23485 C31.9367813,79.2007875 29.4190313,80.3736 27.6319688,79.4437875 C31.6077188,67.3342875 35.5868438,55.2281625 39.5625938,43.12035 C43.7509688,30.3746625 48.8894063,16.4460375 60.6900938,10.0656 C67.1397188,6.579225 78.4088438,-0.0577125 85.7410313,-0.0003375 C102.356156,0.132975 122.258531,4.7584125 137.471344,11.4409125 C141.733969,13.3140375 146.001656,15.51285 149.071219,19.0110375 C150.687844,20.8504125 151.918031,22.99185 153.421594,24.925725 C155.102344,27.0874125 157.112156,28.9706625 159.154031,30.79485 C179.198156,48.7076625 196.446094,66.7706625 222.382969,73.8396 C221.724844,77.7596625 217.347469,80.6149125 213.494906,79.63785 C216.534094,81.7371 219.574969,83.8380375 222.615844,85.938975 C217.320469,87.072975 211.849594,87.3716625 206.463094,86.8215375 C209.384156,88.0331625 212.048719,89.860725 214.230656,92.1506625 C211.633594,92.196225 209.036531,92.2417875 206.437781,92.2890375 C208.911656,94.4541 210.469219,97.63335 210.663281,100.912162 C206.574469,98.9344125 202.485656,96.9566625 198.398531,94.9789125 C199.740094,97.6822875 201.079969,100.382287 202.421531,103.083975 C196.630031,100.753537 191.948906,95.8091625 189.935719,89.901225 C190.992094,106.366162 204.993281,116.855662 214.817906,128.6496 C227.327344,143.666662 239.833406,158.683725 252.341156,173.700787 C259.016906,181.714725 265.756781,189.826537 270.340031,199.197225 C277.213219,213.252412 278.809594,229.214475 280.281094,244.791787 C282.808969,271.54035 285.298031,298.376662 291.081094,324.613912 C294.223219,338.8581 298.352531,353.427975 295.860094,367.798725 C293.995406,378.570037 288.511031,388.414912 286.232906,399.1086 C283.050281,414.051412 286.300406,429.745162 283.583531,444.780787 C281.107969,458.473162 273.846656,470.798662 269.806781,484.11135 C264.312281,502.213162 264.911344,521.585662 261.122906,540.117787 C257.704031,556.844287 250.665469,572.816475 240.629906,586.626975 L0.00084375,593.868037 Z" id="Fill-1" fill="#5BCAEC" mask="url(#mask-2)"></path>
            </g>
        </g>
    </g>
</svg>