<?xml version="1.0" encoding="UTF-8" standalone="no"?>
<svg width="131px" height="380px" viewBox="0 0 131 380" version="1.1" xmlns="http://www.w3.org/2000/svg" xmlns:xlink="http://www.w3.org/1999/xlink">
    <!-- Generator: Sketch 43.1 (39012) - http://www.bohemiancoding.com/sketch -->
    <title>silhueta 2</title>
    <desc>Created with Sketch.</desc>
    <defs>
        <polygon id="path-1" points="189.760144 0 0.000539772727 0 0.000539772727 379.91558 189.760144 379.91558"></polygon>
    </defs>
    <g id="Page-1" stroke="none" stroke-width="1" fill="none" fill-rule="evenodd">
        <g id="home" transform="translate(-189.000000, -1261.000000)">
            <g id="silhueta-2" transform="translate(189.000000, 1261.000000)">
                <mask id="mask-2" fill="white">
                    <use xlink:href="#path-1"></use>
                </mask>
                <g id="Clip-2"></g>
                <path d="M0.000539772727,379.91558 C11.7308807,341.637057 32.9277557,307.088364 50.1205966,270.932227 C54.2628125,262.222455 58.1880398,253.3745 60.9721875,244.140068 C63.8157102,234.707 65.4415057,224.957625 67.6750852,215.360466 C72.5719034,194.311489 80.3716193,174.063534 88.3861648,153.993705 C90.0011648,149.948648 91.6755398,145.823705 94.5266193,142.531091 C96.1934375,140.604102 98.2208239,139.016091 99.8984375,137.096659 C105.204403,131.029614 106.349801,121.662398 102.660994,114.497455 C100.51054,110.318534 95.9278693,106.685864 91.4099716,107.982398 C89.1483239,108.630125 87.3940625,110.369273 85.7240057,112.026375 C82.8966761,114.828875 79.9279261,117.631375 76.268267,119.201034 C72.610767,120.770693 68.0799148,120.888364 64.8866193,118.507966 C62.514858,116.73967 61.2183239,113.909102 59.3140057,111.644216 C57.410767,109.37825 54.1732102,107.609955 51.5596307,108.996091 C51.259517,107.78808 50.960483,106.580068 50.6614489,105.373136 C47.6462784,101.311886 42.6922443,98.7598409 37.6345739,98.6616023 C35.2153125,94.7579659 38.8328693,89.9658636 39.3046307,85.3993864 C40.1607102,77.113875 31.4530966,72.0853523 27.521392,65.9395 C23.9383807,60.3366591 22.5975852,48.3126818 25.1053693,42.1344432 C23.6814489,45.6429659 22.2564489,49.1504091 20.8325284,52.6578523 C20.7915057,51.5761477 20.750483,50.4922841 20.7105398,49.4095 C20.4309375,50.6671705 18.8202557,51.4174545 17.677017,50.822625 C20.2204261,43.0758068 22.7659943,35.3311477 25.3094034,27.5854091 C27.9888352,19.4316023 31.2760511,10.5210341 38.8253125,6.43927273 C42.9513352,4.20893182 50.1605398,-0.0369204545 54.8511648,-0.000215909091 C65.4803693,0.0850681818 78.2125284,3.04410227 87.9446307,7.31910227 C90.6715625,8.51739773 93.401733,9.92404545 95.3654261,12.1619432 C96.3996307,13.3386477 97.1866193,14.7085909 98.1484943,15.94575 C99.2237216,17.3286477 100.50946,18.5334205 101.81571,19.7004091 C114.638551,31.1597841 125.672585,42.7152386 142.265199,47.2374545 C141.844176,49.7452386 139.043835,51.5718295 136.579233,50.9467727 C138.523494,52.2897273 140.468835,53.6337614 142.414176,54.9777955 C139.026563,55.70325 135.526676,55.8943295 132.080767,55.5423977 C133.94946,56.3175114 135.654063,57.4866591 137.049915,58.9516023 C135.388494,58.98075 133.727074,59.0098977 132.064574,59.040125 C133.647188,60.4251818 134.643608,62.4590455 134.767756,64.5566023 C132.152017,63.291375 129.536278,62.0261477 126.921619,60.7609205 C127.779858,62.4903523 128.637017,64.217625 129.495256,65.9459773 C125.790256,64.455125 122.795597,61.2920568 121.507699,57.5125682 C122.183494,68.0456932 131.140483,74.7561477 137.425597,82.3010909 C145.428267,91.9079659 153.428778,101.514841 161.430369,111.121716 C165.701051,116.248477 170.012756,121.437852 172.944801,127.432568 C177.34179,136.424102 178.36304,146.635523 179.304403,156.600807 C180.921563,173.712682 182.513892,190.880693 186.213494,207.665466 C188.223608,216.777909 190.865256,226.098705 189.270767,235.292114 C188.077869,242.182852 184.569347,248.48092 183.11196,255.322 C181.075938,264.881375 183.155142,274.921148 181.417074,284.539898 C179.833381,293.29933 175.188097,301.18433 172.603665,309.700864 C169.088665,321.281148 169.471903,333.67433 167.048324,345.529898 C164.861165,356.230352 160.358381,366.44825 153.938324,375.28325 L0.000539772727,379.91558 Z" id="Fill-1" fill="#5BCAEC" mask="url(#mask-2)"></path>
            </g>
        </g>
    </g>
</svg>