<?xml version="1.0" encoding="UTF-8" standalone="no"?>
<svg
   xmlns:dc="http://purl.org/dc/elements/1.1/"
   xmlns:cc="http://creativecommons.org/ns#"
   xmlns:rdf="http://www.w3.org/1999/02/22-rdf-syntax-ns#"
   xmlns:svg="http://www.w3.org/2000/svg"
   xmlns="http://www.w3.org/2000/svg"
   id="svg5577"
   version="1.1"
   viewBox="0 0 81.137849 240.57108"
   height="240.57109mm"
   width="81.137848mm">
  <defs
     id="defs5571" />
  <metadata
     id="metadata5574">
    <rdf:RDF>
      <cc:Work
         rdf:about="">
        <dc:format>image/svg+xml</dc:format>
        <dc:type
           rdf:resource="http://purl.org/dc/dcmitype/StillImage" />
        <dc:title></dc:title>
      </cc:Work>
    </rdf:RDF>
  </metadata>
  <g
     transform="translate(121.2733,-34.062123)"
     id="layer1">
    <path
       id="path260"
       style="fill:#f7901e;fill-opacity:1;fill-rule:nonzero;stroke:none;stroke-width:0.35277775"
       d="m 119.84863,62.250155 c 0.88617,-0.369 1.83797,-0.79516 2.29693,-1.6383 0.86113,-1.5815 -0.35136,-3.98709 1.02941,-5.14279 1.01529,-0.84984 2.73685,-0.28328 3.73027,-1.15852 0.61172,-0.5394 0.72284,-1.43581 0.7934,-2.24861 0.21555,-2.48038 0.43109,-4.96076 0.64699,-7.44114 0.0568,-0.6544 0.10901,-1.33985 -0.14781,-1.94451 -0.46884,-1.10243 -1.75296,-1.54552 -2.79612,-2.13395 -1.04351,-0.58808 -2.02812,-1.85879 -1.41146,-2.88608 -2.6229,-0.49777 -4.40479,-3.59974 -3.51367,-6.11646 -0.89817,1.05692 -2.74073,0.16616 -3.29812,-1.10384 -0.55739,-1.27 -0.43145,-2.7499 -0.9338,-4.04248 -0.502,-1.29293 -2.21439,-2.33362 -3.24132,-1.40159 -1.02976,0.93416 -0.49319,3.08399 -1.77836,3.61421 -1.55892,0.64312 -2.2352,-1.99707 -3.5567,-3.04447 -2.83845,-2.24861 -6.56026,3.83328 -9.906347,2.44863 -0.80222,-0.33196 -1.40865,-1.06786 -2.24685,-1.29399 -1.61007,-0.43462 -3.05823,1.2252 -3.4745,2.84022 -0.41628,1.61501 -0.29493,3.38737 -1.06963,4.8641 -0.94615,1.8041 -3.01272,2.75413 -4.15043,4.44394 -1.13771,1.6898 -0.15663,4.89479 1.79705,4.31729 -1.83374,1.52894 -4.22204,2.54459 -5.38832,4.62774 -1.16664,2.08315 0.35383,5.61305 2.63701,4.91525 -1.4284,2.66877 0.81739,6.48335 3.84422,6.52921 -0.79657,4.23581 6.72253,5.44372 7.63658,9.65553 0.64946,2.9912 -2.54071,5.50051 -5.55096,6.05578 -3.0099,0.55528 -6.21418,0.0374 -9.08473,1.09997 -5.21335,1.92934 -7.26969,8.06943 -8.66916,13.4493 -2.20874,8.49065 -4.43124,17.075855 -4.61539,25.847325 -0.15346,7.2972 1.10878,14.53832 1.98331,21.78437 2.59539,21.50781 1.76989,43.42448 -2.43593,64.67581 3.03883,1.28093 3.95499,4.87927 3.03812,7.77487 6.1976,1.93569 3.25367,6.20571 2.77178,11.47586 -0.49071,5.36928 2.77883,10.43516 2.91641,15.82526 0.16263,6.37293 -3.98886,13.07853 -1.09714,18.76001 1.07774,2.11702 2.99015,3.67242 4.91455,5.06519 3.34927,2.4243 6.90668,4.56108 10.62038,6.37894 1.59667,0.78176 3.31152,1.52118 5.08317,1.37584 1.772,-0.1457 3.570107,-1.48308 3.613147,-3.26038 0.0275,-1.12783 -0.62512,-2.15159 -1.313387,-3.04555 -4.39526,-5.70935 -11.47233,-9.86366 -13.03726,-16.89699 -0.57749,-2.59468 -0.30444,-5.29378 -0.0286,-7.9375 0.84984,-8.15023 1.69969,-16.30045 2.54953,-24.45068 1.41958,-0.46425 2.8388,-0.92851 4.25838,-1.39276 -1.20615,6.16973 -2.40665,12.59134 -0.81739,18.67393 1.04775,4.00968 3.2886,8.146 1.905,12.0523 -0.93098,2.62926 -3.39795,4.61681 -3.84386,7.37024 -0.58562,3.61667 2.50542,6.7243 5.51356,8.81591 2.67723,1.86161 5.518857,3.48651 8.481477,4.8486 3.10974,1.43016 7.82779,1.96215 9.00395,-1.25203 0.76659,-2.09408 -0.75389,-4.37479 -2.58692,-5.64515 -1.83268,-1.27035 -4.03684,-1.98472 -5.71288,-3.45616 -3.62162,-3.17959 -3.6823,-8.71255 -3.31012,-13.51774 0.42722,-5.51109 1.05516,-11.02607 2.38372,-16.39182 0.86184,-3.48262 2.10397,-7.03439 4.67643,-9.53487 2.5728,-2.50049 6.80014,-3.61033 9.83297,-1.69369 0.47378,-2.62961 0.94756,-5.25921 1.42169,-7.88882 1.99567,-0.49706 3.99133,-0.99377 5.987,-1.49084 0.73801,-0.18379 1.51482,-0.38876 2.05493,-0.92463 0.80433,-0.79798 0.84349,-2.06445 0.83079,-3.19793 -0.12947,-11.62438 -0.25894,-23.24911 -0.38841,-34.87349 -0.28187,-25.28958 -0.62265,-50.97991 -7.96466,-75.181885 -1.12713,-3.71545 -2.94781,-7.8994 -6.70807,-8.86707 -2.02883,-0.52211 -4.50356,-0.0628 -5.95701,-1.57162 -0.85125,-0.88371 -1.05551,-2.18864 -1.21849,-3.40466 -0.27199,-2.03059 -0.53623,-4.14973 0.13758,-6.08471 1.47638,-4.23933 9.21103,-4.50709 12.86404,-6.02792" />
    <path
       id="path34"
       style="fill:#f7901e;fill-opacity:1;fill-rule:nonzero;stroke:none;stroke-width:0.35277775"
       d="m 354.72225,218.53833 c -2.14454,-2.95134 -3.64878,-6.36481 -4.37938,-9.9388 -0.80963,-3.96029 -0.68157,-8.10049 -1.85562,-11.96834 -0.8636,-2.84516 -2.41511,-5.47935 -2.94392,-8.40494 -0.58068,-3.2131 0.11394,-6.56696 -0.56621,-9.7603 -0.48684,-2.28494 -1.65877,-4.38856 -2.05776,-6.69078 -0.53199,-3.07058 0.35031,-6.1842 1.02129,-9.22797 1.23614,-5.60705 1.76813,-11.34215 2.30823,-17.05821 0.31468,-3.32846 0.65546,-6.73982 2.12443,-9.74298 0.97931,-2.00272 2.4197,-3.73663 3.84633,-5.44936 2.67265,-3.20887 5.34529,-6.41773 8.01829,-9.6266 2.10008,-2.52095 5.09164,-4.76215 5.31742,-8.28075 -0.43004,1.26259 -1.43052,2.31916 -2.66806,2.81693 0.28645,-0.57715 0.57291,-1.15429 0.85972,-1.73143 -0.87383,0.42262 -1.74731,0.8449 -2.62079,1.26788 0.0416,-0.70132 0.3743,-1.38042 0.90276,-1.84291 -0.55527,-0.0102 -1.11054,-0.0198 -1.66546,-0.0296 0.46637,-0.48931 1.03575,-0.87983 1.66017,-1.13877 -1.15112,0.11783 -2.32057,0.054 -3.45193,-0.18909 0.64981,-0.44873 1.29963,-0.89782 1.94909,-1.34655 -0.82303,0.2092 -1.75859,-0.40111 -1.89935,-1.2386 5.54285,-1.51025 9.22831,-5.37034 13.5121,-9.19833 0.43638,-0.38982 0.86536,-0.79234 1.22484,-1.25448 0.32138,-0.41311 0.5842,-0.87066 0.92957,-1.26401 0.65616,-0.74788 1.5681,-1.21778 2.47897,-1.61783 3.25084,-1.4277 7.50393,-2.41618 11.05464,-2.44475 1.56669,-0.0123 3.9751,1.40617 5.3534,2.15088 2.52166,1.36384 3.61986,4.34023 4.5145,7.06402 0.84984,2.58692 1.69969,5.17455 2.54988,7.76182 -0.38171,0.19897 -0.92004,-0.0519 -1.01318,-0.47202 -0.0138,0.36195 -0.0275,0.72355 -0.0409,1.0855 -0.4759,-1.17157 -0.95179,-2.3435 -1.42734,-3.51508 0.83785,2.0634 0.38982,6.07978 -0.80715,7.95161 -1.31339,2.05246 -4.2224,3.73239 -3.93629,6.49993 0.15804,1.52612 1.36595,3.12703 0.55774,4.43019 -1.6891,0.0332 -3.34363,0.88547 -4.35117,2.2419 -0.0998,0.40358 -0.20002,0.80715 -0.29986,1.21073 -0.87312,-0.46284 -1.95474,0.12806 -2.5908,0.88442 -0.6357,0.7567 -1.06891,1.7018 -1.86125,2.29305 -1.06645,0.79481 -2.57986,0.7553 -3.80224,0.23143 -1.22202,-0.52459 -2.21403,-1.46086 -3.15842,-2.39713 -0.55774,-0.55316 -1.1437,-1.13383 -1.899,-1.35079 -1.50954,-0.43321 -3.03989,0.77999 -3.7585,2.17664 -1.2319,2.39325 -0.84949,5.52274 0.92252,7.54906 0.56056,0.64064 1.23789,1.17193 1.79493,1.81504 0.9525,1.10067 1.51165,2.47791 2.05105,3.8287 2.67688,6.70489 5.28285,13.46835 6.91832,20.49956 0.74613,3.20569 1.28905,6.46254 2.23873,9.6139 0.92992,3.08469 2.24155,6.03956 3.62515,8.94962 5.74322,12.07735 12.82382,23.61848 16.74248,36.40491" />
    <path
       id="path420"
       style="fill:#f7901e;fill-opacity:1;fill-rule:nonzero;stroke:none;stroke-width:0.35277775"
       d="m 170.79957,290.15157 c -3.0427,1.72297 -4.63444,5.322 -4.8588,8.81133 -0.22508,3.48897 0.70167,6.93843 1.62066,10.31205 0.5207,1.91029 1.15676,3.98639 2.80564,5.08176 1.07174,0.71155 2.42464,0.89359 3.50732,1.5875 1.94133,1.24389 2.56469,3.9049 2.06692,6.15633 -0.49742,2.25107 -1.88736,4.18711 -3.27096,6.03109 -5.24121,6.98148 -8.3439,11.90908 -12.57546,19.5446 -4.23193,7.63553 -6.98571,16.42533 -5.80285,25.07438 0.99554,7.28839 -1.397,10.82148 2.21051,17.23251 1.45344,2.58409 2.96157,3.89325 5.50404,5.41831 1.65312,0.9913 8.97855,1.64641 10.9026,1.76001 9.15705,0.53939 18.37654,-1.07527 24.08554,-8.25465 5.70901,-7.17939 9.36202,-15.74061 14.14251,-23.5691 1.05163,-1.72296 2.40736,-3.57646 4.40902,-3.83892 1.76777,-0.23178 3.39972,0.86784 4.88315,1.85631 6.09706,4.06506 12.88415,7.09295 19.98168,8.91611 4.14338,1.06398 8.66069,1.86197 11.67624,4.89655 4.14267,4.16878 5.17278,9.31617 4.64044,15.16946 11.66883,0.22684 19.23556,0.45367 30.90474,0.68086 0.81739,0.0159 1.6891,0.0176 2.37984,-0.4198 2.06551,-1.30775 0.50624,-3.01202 -1.40017,-4.54272 -9.42164,-7.56675 -21.75863,-8.01442 -27.60239,-18.59141 1.07456,-0.25752 2.14912,-0.5147 3.22368,-0.77222 -1.10949,-5.27721 -5.06342,-9.86649 -10.11873,-11.74398 2.90513,0.32174 3.93595,-4.36033 1.87749,-6.43466 -2.05846,-2.07434 -5.29485,-2.21086 -8.20068,-2.52201 -6.99099,-0.7486 -13.78337,-3.27695 -19.56187,-7.28169 -2.06622,-1.43157 -4.07953,-3.08469 -6.51545,-3.70593 -2.43558,-0.62089 -5.47653,0.18627 -6.44208,2.50755 -0.86501,-2.67935 -3.97263,-4.40973 -6.70595,-3.7338 -0.90241,0.22295 -1.78506,0.67345 -2.71004,0.57502 -1.02835,-0.10971 -1.85173,-0.86924 -2.59433,-1.58891 -4.68524,-4.54131 -9.71938,-6.23005 -9.52465,-12.75186 2.47262,-0.0575 5.06695,-0.14747 7.20126,-1.397 2.13465,-1.24919 2.63384,-5.57107 2.42746,-9.93423 1.0608,1.06222 2.49626,-1.29152 1.65206,-2.53294 -0.84455,-1.24143 -2.49837,-1.79211 -3.21134,-3.11326 -1.27141,-2.35797 1.19804,-4.92302 1.90677,-7.50641 1.22978,-4.47922 -3.03389,-8.51641 -7.12435,-10.71704 -3.53554,-1.90217 -7.41045,-3.3849 -11.42506,-3.41136 -4.01532,-0.0268 -10.75655,3.39443 -13.06371,6.6802" />
    <path
       id="path320"
       style="fill:#f7901e;fill-opacity:1;fill-rule:nonzero;stroke:none;stroke-width:0.35277775"
       d="m -82.637398,34.573246 c -3.85974,2.032705 -7.96713,4.360686 -9.75218,8.34143 -2.02283,4.510264 -0.42616,9.858375 2.12831,14.089944 1.20473,1.995664 2.65923,3.9878 2.84162,6.3119 0.25858,3.298119 -2.17205,6.260394 -4.97805,8.012994 -2.80599,1.7526 -6.05331,2.675114 -8.937972,4.295068 -4.80378,2.696988 -8.37636,7.219948 -10.84968,12.142968 -2.47298,4.92266 -3.94582,10.27571 -5.4028,15.58854 -1.54975,5.64938 -3.10656,11.33898 -3.58104,17.17781 -0.19086,2.34985 -0.19403,4.78014 0.64593,6.98323 0.95039,2.49238 2.88184,4.4577 4.68419,6.42444 4.17124,4.55118 7.89622,9.48866 11.61379,14.41732 1.01883,1.35078 2.07222,2.78306 2.29482,4.46017 0.14041,1.05586 -0.0631,2.12301 -0.24094,3.17324 -1.65594,9.79663 -1.08268,19.81658 -0.50412,29.73563 -2.00555,1.78188 -2.96016,4.49263 -3.02578,7.17444 -0.0466,1.905 0.46073,3.7846 0.49812,5.68996 0.0374,1.91276 -0.39864,3.79906 -0.79622,5.67055 -1.36807,6.44384 -2.30434,12.97022 -3.2392,19.49097 -0.66322,4.62421 -1.32645,9.24877 -1.98967,13.87334 -0.26776,1.8676 -0.47131,3.98321 0.72884,5.43877 1.09326,1.32539 3.22474,1.9304 3.49109,3.62762 0.2092,1.33526 -0.90629,2.45603 -1.60196,3.61491 -1.57198,2.61973 -0.87948,6.36305 1.52576,8.24653 -1.55046,1.35784 -2.89419,3.13373 -3.08257,5.18619 -0.18839,2.05246 1.14653,4.3247 3.18946,4.59775 l 0.51012,-1.00436 c 0.95673,3.33128 3.63079,6.22547 7.003692,7.02204 1.63195,0.38523 3.33375,0.28645 5.00733,0.18556 3.25191,-0.19579 6.50381,-0.39194 9.75536,-0.58808 0.45932,-0.89147 0.9324,-1.85773 0.79022,-2.85009 -0.14216,-0.99272 -1.21073,-1.90182 -2.12407,-1.48801 -1.00471,-1.29752 -0.0318,-3.46005 -1.11972,-4.68877 -0.6103,-0.68933 -1.63053,-0.79164 -2.45921,-1.19239 -0.82867,-0.40076 -1.4866,-1.57515 -0.80221,-2.1904 0,0.0737 -0.21802,-0.3048 -0.21802,-0.23107 -1.51165,-0.76023 -2.56011,-1.76494 -3.75038,-2.96686 2.19675,-2.35408 1.31268,-3.49673 0.68333,-6.64457 -0.77188,0.23777 -0.32103,-2.69134 -0.64911,-3.4297 -0.32809,-0.73837 -0.28081,-1.58151 -0.22754,-2.38796 0.46602,-7.06437 0.93239,-14.12875 1.39876,-21.19347 0.10795,-1.63654 0.22296,-3.30412 0.82656,-4.82918 0.78952,-1.9939 2.39783,-3.71122 2.56716,-5.84905 0.11924,-1.50354 -0.50764,-2.99121 -0.39723,-4.4958 0.11748,-1.60444 1.04669,-3.01378 1.79317,-4.43901 1.21215,-2.31528 1.98861,-4.82917 2.75802,-7.32684 1.58009,-5.12762 3.16018,-10.2556 4.74027,-15.38323 0.13794,2.75096 0.37642,5.75028 2.25672,7.76288 0.37324,0.3997 0.81456,0.76553 1.016,1.27388 0.21802,0.55104 0.11571,1.17016 0.0102,1.75295 -0.39299,2.17135 -0.78563,4.3427 -1.17863,6.51404 1.38254,0.0843 2.48991,1.28835 2.91148,2.60774 0.42157,1.31939 0.30409,2.74214 0.19297,4.12291 -0.61207,7.61718 -0.88653,15.26117 -0.82233,22.90269 0.006,0.71226 0.0219,1.45485 0.3496,2.08703 0.35913,0.69286 1.03964,1.15464 1.52048,1.76883 1.09467,1.39911 1.01529,3.38596 0.58878,5.11034 -0.42651,1.72473 -1.14864,3.40607 -1.17016,5.1823 -0.037,3.07517 2.02177,5.85259 2.14489,8.92528 0.12065,3.02119 -1.61961,8.33967 -0.25647,11.03877 2.5781,-0.39017 5.28249,0.11254 7.54803,1.40264 1.97132,-0.9465 3.97651,-2.08456 6.05861,-1.41534 2.97638,0.95638 6.09529,1.37195 9.19444,1.78259 2.11526,0.28081 4.23052,0.56126 6.34577,0.84172 0.98108,0.13018 2.02777,0.25048 2.91924,-0.17991 0.89111,-0.43039 1.47284,-1.64289 0.89429,-2.44581 -0.23919,-0.33232 -0.62089,-0.52917 -0.91546,-0.81351 -0.56339,-0.54328 -0.76729,-1.35713 -1.22626,-1.99143 -1.46438,-2.02459 -4.74944,-1.49507 -6.70313,-3.05329 -1.63195,-1.3014 -3.31328,-3.29494 -4.79813,-4.76215 -1.09502,-1.08232 -2.21015,-2.19145 -2.89419,-3.57117 -0.75071,-1.51377 -0.92604,-3.2385 -1.08973,-4.92054 -0.22965,-2.35832 -0.45896,-4.71699 -0.68862,-7.07566 -0.35172,-3.61633 -0.70379,-7.23301 -0.97684,-10.85603 -0.30409,-4.0379 -0.50976,-8.08779 -0.40217,-12.13556 0.0896,-3.37538 0.39688,-6.74053 0.70415,-10.1032 1.01035,-11.05429 2.02036,-22.10823 3.03036,-33.16217 0.34502,-3.77367 0.68968,-7.54839 1.16029,-11.30829 0.70026,-5.59823 1.67886,-11.16119 2.93052,-16.6624 0.12665,-0.55669 0.25682,-1.12289 0.21414,-1.69228 -0.0374,-0.50306 -0.20885,-0.98601 -0.28963,-1.48378 -0.20215,-1.2446 0.16615,-2.50155 0.48401,-3.7218 1.24989,-4.79778 1.766,-9.78571 1.5247,-14.7373 -0.17921,-3.67912 0.64312,-8.04721 -0.9278,-11.37849 -0.46884,-0.99377 -1.18322,-1.86478 -1.57269,-2.89172 -0.41275,-1.08761 -0.43497,-2.27824 -0.45226,-3.44134 -0.0737,-4.94948 -0.14746,-9.8986 -0.22119,-14.84807 -0.0469,-3.15701 0.11183,-6.42937 -1.82174,-8.925629 -2.0193,-2.607027 -5.69137,-3.059288 -8.71996,-4.363509 -3.98992,-1.718379 -7.15116,-5.259562 -8.40776,-9.417754 1.00824,0.431094 2.22532,-0.03704 2.96545,-0.846314 0.74013,-0.809271 1.09891,-1.889477 1.38783,-2.947104 1.35043,-4.943123 1.59667,-10.184696 0.71543,-15.232945 -0.0621,-0.355953 -0.13299,-0.719667 -0.31679,-1.030817 -0.23354,-0.395464 -0.62442,-0.666044 -0.97896,-0.957792 -1.42734,-1.174397 -2.40594,-2.881136 -2.6984,-4.706055 -0.11747,-0.733778 -0.13723,-1.512358 -0.51188,-2.154414 -0.254,-0.434622 -0.65017,-0.766233 -1.05304,-1.068211 -2.59574,-1.945217 -6.85059,-4.08058 -9.72044,-2.56928" />
  </g>
</svg>
