<?xml version="1.0" encoding="UTF-8" standalone="no"?>
<svg width="122px" height="570px" viewBox="0 0 122 570" version="1.1" xmlns="http://www.w3.org/2000/svg" xmlns:xlink="http://www.w3.org/1999/xlink">
    <!-- Generator: Sketch 43.1 (39012) - http://www.bohemiancoding.com/sketch -->
    <title>silhueta</title>
    <desc>Created with Sketch.</desc>
    <defs></defs>
    <g id="Page-1" stroke="none" stroke-width="1" fill="none" fill-rule="evenodd">
        <g id="home" transform="translate(-198.000000, -536.000000)" fill="#F8901E">
            <path d="M219.590907,623.921822 C217.519341,623.059801 215.294365,622.064197 214.221534,620.092818 C212.209454,616.396352 215.043899,610.773382 211.816013,608.071476 C209.441801,606.085486 205.418685,607.410871 203.096653,605.364352 C201.665864,604.103671 201.406005,602.008103 201.241115,600.108733 C200.738095,594.310436 200.234031,588.513184 199.729968,582.715931 C199.597429,581.185999 199.475327,579.584058 200.075402,578.169966 C201.171193,575.593294 204.172615,574.558033 206.610487,573.182555 C209.049404,571.807077 211.350563,568.838007 209.910382,566.436661 C216.04159,565.273036 220.205593,558.023078 218.122548,552.140249 C220.221247,554.610474 224.528225,552.528472 225.831694,549.559402 C227.135162,546.591376 226.839821,543.132853 228.013882,540.110559 C229.187943,537.089308 233.190187,534.656653 235.590489,536.835711 C237.998097,539.019986 236.743678,544.04288 239.747187,545.282689 C243.391473,546.786531 244.971498,540.614622 248.060584,538.167357 C254.695855,532.910694 263.395387,547.126748 271.216199,543.891557 C273.091566,543.114068 274.508788,541.394199 276.467644,540.865088 C280.230901,539.849656 283.616371,543.729797 284.589016,547.503491 C285.56166,551.279271 285.276755,555.422402 287.088461,558.87362 C289.300914,563.090848 294.130741,565.310606 296.790902,569.260669 C299.448976,573.210732 297.156166,580.701764 292.589329,579.352376 C296.876478,582.92674 302.457704,585.298865 305.184656,590.168349 C307.910565,595.037832 304.358117,603.288612 299.020053,601.65745 C302.359604,607.896149 297.110247,616.812752 290.035616,616.9192 C291.896372,626.819927 274.321982,629.642892 272.184669,639.487263 C270.66726,646.479449 278.123853,652.344537 285.15987,653.642787 C292.194844,654.941038 299.684832,653.729407 306.395244,656.213198 C318.580432,660.72368 323.386256,675.075403 326.657973,687.649858 C331.820711,707.496187 337.0158,727.563761 337.446811,748.064433 C337.803726,765.121192 334.854484,782.046457 332.810053,798.984245 C326.744592,849.254931 328.673183,900.483652 338.502944,950.157394 C331.401179,953.150467 329.259692,961.560919 331.403267,968.328729 C316.915875,972.853821 323.797438,982.834906 324.923493,995.152633 C326.07042,1007.70308 318.429109,1019.54388 318.106633,1032.14234 C317.726759,1047.03883 327.430244,1062.71176 320.670783,1075.9917 C318.152552,1080.94049 313.681728,1084.57539 309.184813,1087.83041 C301.355652,1093.49721 293.040168,1098.49192 284.360465,1102.7415 C280.628516,1104.56886 276.620011,1106.29708 272.478967,1105.95687 C268.336879,1105.61561 264.134263,1102.48999 264.033032,1098.33643 C263.969372,1095.70027 265.494086,1093.30727 267.103333,1091.21796 C277.376628,1077.87228 293.918888,1068.16253 297.57674,1051.72359 C298.926128,1045.65813 298.287439,1039.34951 297.643531,1033.16925 C295.657542,1014.12024 293.670509,995.070188 291.683476,976.020133 C288.36584,974.934779 285.049248,973.849425 281.730568,972.764071 C284.549359,987.184672 287.356669,1002.19491 283.641418,1016.41201 C281.192066,1025.78363 275.954188,1035.45267 279.188335,1044.58321 C281.364261,1050.72903 287.131249,1055.37414 288.172772,1061.81008 C289.541988,1070.26228 282.317077,1077.52685 275.285234,1082.41616 C269.028793,1086.76801 262.386216,1090.56571 255.460821,1093.74872 C248.192078,1097.0914 237.165297,1098.33538 234.415385,1090.82348 C232.623507,1085.92791 236.178042,1080.59715 240.46206,1077.62808 C244.746079,1074.65796 249.898381,1072.98923 253.815048,1069.54949 C262.279768,1062.11795 262.422742,1049.18449 261.552372,1037.95316 C260.554681,1025.07188 259.086322,1012.18121 255.980539,999.639112 C253.965328,991.498955 251.063049,983.197038 245.050813,977.352823 C239.036489,971.508608 229.155591,968.91315 222.066349,973.393367 C220.960123,967.247549 219.851809,961.100687 218.743496,954.953825 C214.079603,953.793331 209.414667,952.631793 204.749731,951.469211 C203.024644,951.039244 201.209806,950.561271 199.947038,949.308939 C198.066453,947.442965 197.974616,944.483287 198.003837,941.833562 C198.306484,914.663179 198.610174,887.492797 198.912821,860.32137 C199.570295,801.209221 200.367613,741.160953 217.528734,684.591038 C220.163849,675.90716 224.41969,666.127492 233.207928,663.86599 C237.950091,662.644966 243.735864,663.718841 247.132814,660.192483 C249.121935,658.126135 249.598864,655.077751 249.979782,652.233914 C250.616384,647.48862 251.233158,642.534604 249.659394,638.012643 C246.208176,628.102523 228.129723,627.477401 219.590907,623.921822" id="silhueta"></path>
        </g>
    </g>
</svg>