<svg id="svg5577" xmlns="http://www.w3.org/2000/svg" viewBox="0 0 179.68 359.74"><title>silhouette-2</title><g id="layer1"><path id="path34" d="M33.92,355.35a73,73,0,0,1-12.41-28.17c-2.3-11.23-1.93-23-5.26-33.93-2.45-8.07-6.85-15.53-8.34-23.83-1.65-9.11.32-18.61-1.61-27.67-1.38-6.48-4.7-12.44-5.83-19-1.51-8.7,1-17.53,2.9-26.16,3.5-15.89,5-32.15,6.54-48.35,0.89-9.44,1.86-19.11,6-27.62,2.78-5.68,6.86-10.59,10.9-15.45L49.55,77.93c6-7.15,14.43-13.5,15.07-23.47a13.38,13.38,0,0,1-7.56,8l2.44-4.91-7.43,3.59a7.63,7.63,0,0,1,2.56-5.22l-4.72-.08a13.86,13.86,0,0,1,4.71-3.23,31.43,31.43,0,0,1-9.79-.54l5.52-3.82A4.55,4.55,0,0,1,45,44.73c15.71-4.28,26.16-15.22,38.3-26.07a27.58,27.58,0,0,0,3.47-3.56c0.91-1.17,1.66-2.47,2.63-3.58a19.46,19.46,0,0,1,7-4.59A85.41,85.41,0,0,1,127.74,0c4.44,0,11.27,4,15.17,6.1,7.15,3.87,10.26,12.3,12.8,20l7.23,22a2.09,2.09,0,0,1-2.87-1.34Q160,48.32,160,49.86l-4-10c2.38,5.85,1.11,17.23-2.29,22.54-3.72,5.82-12,10.58-11.16,18.43,0.45,4.33,3.87,8.86,1.58,12.56a16,16,0,0,0-12.33,6.35l-0.85,3.43c-2.47-1.31-5.54.36-7.34,2.51s-3,4.82-5.28,6.5c-3,2.25-7.31,2.14-10.78.66s-6.28-4.14-9-6.8c-1.58-1.57-3.24-3.21-5.38-3.83-4.28-1.23-8.62,2.21-10.65,6.17a19.67,19.67,0,0,0,2.62,21.4c1.59,1.82,3.51,3.32,5.09,5.14,2.7,3.12,4.29,7,5.81,10.85,7.59,19,15,38.18,19.61,58.11,2.11,9.09,3.65,18.32,6.35,27.25a181.51,181.51,0,0,0,10.28,25.37c16.28,34.23,36.35,67,47.46,103.2" fill="#5bbcde"/></g></svg>