<?xml version="1.0" encoding="UTF-8" standalone="no"?>
<svg width="86px" height="172px" viewBox="0 0 86 172" version="1.1" xmlns="http://www.w3.org/2000/svg" xmlns:xlink="http://www.w3.org/1999/xlink">
    <!-- Generator: Sketch 43.1 (39012) - http://www.bohemiancoding.com/sketch -->
    <title>silhueta 2 copy</title>
    <desc>Created with Sketch.</desc>
    <defs>
        <polygon id="path-1" points="85.8914335 0 0.000244318182 0 0.000244318182 171.961789 85.8914335 171.961789"></polygon>
    </defs>
    <g id="Page-1" stroke="none" stroke-width="1" fill="none" fill-rule="evenodd" opacity="0.5">
        <g id="criar-homenagem" transform="translate(-193.000000, -1876.000000)">
            <g id="silhueta-2-copy" transform="translate(193.000000, 1876.000000)">
                <mask id="mask-2" fill="white">
                    <use xlink:href="#path-1"></use>
                </mask>
                <g id="Clip-2"></g>
                <path d="M0.000244318182,171.961789 C5.30976705,154.63572 14.904142,138.997891 22.6861648,122.632482 C24.5610625,118.690164 26.3377443,114.6853 27.5979375,110.505505 C28.8850057,106.2358 29.620892,101.822925 30.6318807,97.4789477 C32.8483352,87.9515159 36.378733,78.7866523 40.0063693,69.7024136 C40.7373693,67.8714932 41.4952443,66.0044136 42.785733,64.5140727 C43.5401875,63.6418568 44.4578466,62.9230727 45.2171875,62.0542773 C47.6188352,59.3081409 48.1372784,55.0682432 46.467608,51.8251636 C45.4942443,49.9336523 43.419983,48.2893909 41.3750398,48.8762432 C40.3513466,49.169425 39.5573125,49.9566182 38.801392,50.706675 C37.5216534,51.975175 36.1779034,53.243675 34.5214261,53.9541523 C32.8659261,54.6646295 30.8151193,54.7178909 29.369733,53.6404477 C28.2961989,52.8400614 27.7093466,51.5588568 26.847392,50.5336977 C25.9859261,49.50805 24.5205057,48.7076636 23.337517,49.3350727 C23.2016761,48.7882886 23.0663239,48.2415045 22.9309716,47.6952091 C21.5662102,45.8569591 19.323858,44.7018227 17.0345966,44.6573568 C15.9395625,42.8904477 17.576983,40.7213909 17.790517,38.6544591 C18.1780057,34.904175 14.2366648,32.6281068 12.4570511,29.8463 C10.835267,27.3102773 10.2283807,21.8678455 11.363483,19.0713795 C10.7189716,20.6594477 10.0739716,22.2470273 9.42946023,23.8346068 C9.41089205,23.3449932 9.39232386,22.8544023 9.37424432,22.3643 C9.2476875,22.9335614 8.51864205,23.2731636 8.00117614,23.003925 C9.15240341,19.4974705 10.304608,15.9919932 11.4558352,12.4860273 C12.6686307,8.79535682 14.1565284,4.76215227 17.5735625,2.91461818 C19.4411307,1.90509545 22.7042443,-0.0167113636 24.8273693,-9.77272728e-05 C29.638483,0.0385045455 35.4014602,1.37785682 39.806517,3.31285682 C41.0408125,3.85524318 42.2765739,4.49193636 43.1654034,5.50487955 C43.633517,6.03749318 43.989733,6.65757273 44.425108,7.21755 C44.9117898,7.84349318 45.4937557,8.38881136 46.0850057,8.91702727 C51.8890284,14.1039023 56.8833807,19.3342659 64.3937216,21.3811636 C64.2031534,22.5162659 62.9356307,23.3430386 61.8200739,23.0601182 C62.700108,23.6679818 63.5806307,24.2763341 64.4611534,24.8846864 C62.9278125,25.21305 61.3436534,25.2995386 59.7839261,25.1402432 C60.6297557,25.4910841 61.4013125,26.0202773 62.0331193,26.6833568 C61.281108,26.69655 60.5290966,26.7097432 59.7765966,26.723425 C60.4929375,27.3503455 60.9439489,28.2709364 61.000142,29.2203568 C59.8161761,28.647675 58.6322102,28.0749932 57.448733,27.5023114 C57.8371989,28.2851068 58.2251761,29.066925 58.613642,29.8492318 C56.936642,29.174425 55.5811648,27.7427205 54.9982216,26.0320045 C55.304108,30.7996295 59.3583239,33.8369932 62.2031648,37.2520727 C65.8254261,41.6004477 69.4467102,45.9488227 73.068483,50.2971977 C75.0015284,52.6177318 76.953142,54.9666068 78.2802784,57.6800045 C80.2704943,61.7498568 80.7327443,66.3718682 81.1588352,70.8824705 C81.8908125,78.6278455 82.6115511,86.3986295 84.286108,93.9959477 C85.1959489,98.1205273 86.391642,102.339414 85.6699261,106.500641 C85.129983,109.619607 83.5419148,112.470311 82.8822557,115.5668 C81.9606875,119.893675 82.9018011,124.437993 82.1150966,128.791743 C81.398267,132.756539 79.2956648,136.325539 78.1258693,140.180391 C76.5348693,145.421993 76.7083352,151.031539 75.6113466,156.397743 C74.6213693,161.241107 72.583267,165.86605 69.6773466,169.86505 L0.000244318182,171.961789 Z" id="Fill-1" fill="#5BCAEC" mask="url(#mask-2)"></path>
            </g>
        </g>
    </g>
</svg>