<?xml version="1.0" encoding="UTF-8" standalone="no"?>
<svg width="49px" height="196px" viewBox="0 0 49 196" version="1.1" xmlns="http://www.w3.org/2000/svg" xmlns:xlink="http://www.w3.org/1999/xlink">
    <!-- Generator: Sketch 43.1 (39012) - http://www.bohemiancoding.com/sketch -->
    <title>silhueta copy</title>
    <desc>Created with Sketch.</desc>
    <defs></defs>
    <g id="Page-1" stroke="none" stroke-width="1" fill="none" fill-rule="evenodd" opacity="0.5">
        <g id="criar-homenagem" transform="translate(-60.000000, -1876.000000)" fill="#F8901E">
            <path d="M67.4242416,1906.23277 C66.7119138,1905.93635 65.9468343,1905.594 65.577931,1904.91613 C64.8860579,1903.64506 65.860709,1901.71155 64.7507695,1900.78247 C63.9343736,1900.09957 62.5509864,1900.55532 61.7525333,1899.8516 C61.2605427,1899.4181 61.1711877,1898.69752 61.1144885,1898.04441 C60.9415203,1896.05061 60.7681932,1894.05716 60.594866,1892.06372 C60.5492914,1891.53764 60.5073053,1890.9868 60.7136472,1890.50055 C61.0904452,1889.61454 62.1225131,1889.25855 62.9607992,1888.78558 C63.799444,1888.31261 64.59072,1887.29167 64.0954997,1886.46594 C66.2037747,1886.06582 67.6356074,1883.57285 66.9193322,1881.54998 C67.6409902,1882.39939 69.1219861,1881.68347 69.5701964,1880.66253 C70.0184067,1879.64195 69.9168507,1878.4527 70.3205629,1877.41346 C70.7242751,1876.37457 72.1004853,1875.53808 72.9258525,1876.28737 C73.7537317,1877.03845 73.3223876,1878.76562 74.3551732,1879.19194 C75.608296,1879.70905 76.151603,1877.58678 77.2138147,1876.74527 C79.4954168,1874.93771 82.4868348,1879.82604 85.1760965,1878.71359 C85.8209595,1878.44624 86.308285,1877.85485 86.9818565,1877.67291 C88.2758888,1877.32374 89.4400154,1878.65797 89.7744686,1879.95559 C90.1089217,1881.25392 90.0109542,1882.67858 90.633927,1883.86531 C91.3947003,1885.31545 93.0554827,1886.07873 93.9702049,1887.437 C94.8842094,1888.79527 94.0958043,1891.37113 92.5254534,1890.90713 C93.9996311,1892.13621 95.9187893,1892.95189 96.8564783,1894.62631 C97.7938084,1896.30073 96.5722649,1899.13784 94.7367199,1898.57695 C95.8850569,1900.72218 94.0800147,1903.78824 91.6473345,1903.82485 C92.2871735,1907.22931 86.2440499,1908.20001 85.5091142,1911.58509 C84.9873386,1913.98942 87.5513599,1916.00619 89.9707624,1916.45261 C92.3898061,1916.89902 94.9653107,1916.48239 97.2727504,1917.33647 C101.462745,1918.88744 103.115274,1923.82242 104.240285,1928.14627 C106.015543,1934.97062 107.801924,1941.87105 107.950132,1948.9204 C108.07286,1954.78553 107.058735,1960.60545 106.355737,1966.42967 C104.27007,1983.71573 104.933235,2001.33122 108.313293,2018.41202 C105.871283,2019.44121 105.134912,2022.33323 105.872,2024.6604 C100.890371,2026.2164 103.256663,2029.64849 103.643868,2033.88406 C104.03825,2038.19966 101.410711,2042.27123 101.299825,2046.60333 C101.169201,2051.72563 104.505838,2057.11492 102.181532,2061.68136 C101.315614,2063.38305 99.7782783,2064.63294 98.2319707,2065.75221 C95.5398381,2067.70079 92.6804789,2069.41828 89.6958792,2070.87953 C88.4126126,2071.50789 87.0342493,2072.10215 85.6103114,2071.98517 C84.1860147,2071.86782 82.7409043,2070.79305 82.7060954,2069.36481 C82.6842052,2068.45834 83.2084928,2067.63548 83.7618477,2066.91705 C87.2944195,2062.32801 92.9826351,2058.98922 94.240423,2053.33653 C94.7044229,2051.25087 94.4848035,2049.08159 94.2633897,2046.95644 C93.5804881,2040.40626 92.8972275,2033.85571 92.213967,2027.30517 C91.073166,2026.93196 89.9327238,2026.55875 88.7915638,2026.18554 C89.7608321,2031.1442 90.7261529,2036.30562 89.4486279,2041.1943 C88.6063945,2044.41683 86.8052997,2047.74162 87.9173923,2050.88125 C88.6656056,2052.99454 90.6486401,2054.59181 91.0067777,2056.80487 C91.4775959,2059.71124 88.9932405,2062.20923 86.5752734,2063.89047 C84.4239358,2065.3869 82.1398217,2066.69277 79.7584578,2067.78728 C77.2590305,2068.93669 73.4673652,2069.36445 72.5217814,2066.78141 C71.9056268,2065.09802 73.127888,2063.26498 74.6009891,2062.24404 C76.0740902,2061.22274 77.8457589,2060.64893 79.1925429,2059.46614 C82.1032184,2056.91073 82.1523816,2052.46344 81.8530963,2048.60144 C81.5100306,2044.17209 81.0051211,2039.73951 79.9371677,2035.42678 C79.2442181,2032.62771 78.2462415,2029.77302 76.178876,2027.76343 C74.1107928,2025.75384 70.7131506,2024.86136 68.2754464,2026.40193 C67.8950598,2024.28863 67.5139554,2022.17497 67.1328511,2020.06132 C65.5291267,2019.66227 63.9250434,2019.26286 62.3209601,2018.8631 C61.7277723,2018.71525 61.1037229,2018.55089 60.6695079,2018.12027 C60.0228507,2017.47863 59.9912714,2016.46092 60.0013193,2015.54979 C60.1053874,2006.20699 60.2098143,1996.86419 60.3138823,1987.52103 C60.5399612,1967.19475 60.8141266,1946.54657 66.7151435,1927.09446 C67.6212532,1924.10843 69.0846652,1920.74559 72.1065858,1919.96795 C73.7372244,1919.54809 75.7267183,1919.91736 76.8947923,1918.70478 C77.5787706,1917.99425 77.7427674,1916.94603 77.8737496,1915.96815 C78.0926514,1914.33644 78.3047349,1912.63295 77.763581,1911.07803 C76.5768465,1907.67034 70.3603958,1907.45539 67.4242416,1906.23277" id="silhueta-copy"></path>
        </g>
    </g>
</svg>