<?xml version="1.0" standalone="no"?>
<!DOCTYPE svg PUBLIC "-//W3C//DTD SVG 20010904//EN"
 "http://www.w3.org/TR/2001/REC-SVG-20010904/DTD/svg10.dtd">
<svg version="1.0" xmlns="http://www.w3.org/2000/svg"
 width="260.000000pt" height="260.000000pt" viewBox="0 0 260.000000 260.000000"
 preserveAspectRatio="xMidYMid meet">
<metadata>
Created by potrace 1.11, written by Peter Selinger 2001-2013
</metadata>
<g transform="translate(0.000000,260.000000) scale(0.100000,-0.100000)"
fill="#000000" stroke="none">
<path d="M1900 2105 c-7 -8 -25 -15 -40 -15 -58 0 -121 -96 -126 -193 -2 -36
0 -56 6 -52 6 3 10 -1 10 -10 0 -18 37 -95 46 -95 3 0 2 5 -1 10 -3 6 -4 10
-2 10 9 0 78 -112 73 -118 -3 -3 -6 -1 -6 4 0 5 -10 20 -21 34 l-21 25 17 -30
c10 -16 24 -36 33 -42 9 -7 12 -13 6 -13 -5 0 -2 -4 6 -10 20 -12 26 -136 8
-170 -17 -31 -53 -38 -66 -13 -5 10 -13 40 -17 67 -8 61 -13 73 -31 80 -18 7
-44 -43 -44 -85 0 -45 35 -113 66 -130 41 -22 111 -16 141 12 79 75 68 194
-32 335 -64 89 -87 146 -86 209 0 56 26 135 43 135 19 0 37 -35 31 -62 -9 -44
4 -78 30 -78 41 0 47 13 50 94 1 71 -1 80 -22 97 -28 23 -35 23 -51 4z"/>
<path d="M588 2102 c-10 -2 -18 -9 -19 -15 0 -7 -3 -23 -5 -37 -3 -14 -8 -47
-11 -74 -4 -39 -2 -47 8 -41 11 6 11 5 3 -4 -12 -13 -12 -17 12 -201 12 -92
28 -190 39 -230 1 -3 5 -32 9 -65 11 -79 21 -98 49 -89 46 13 56 35 63 129 3
50 15 155 26 235 10 80 19 155 19 167 0 12 4 25 9 28 6 3 7 18 4 32 -5 20 -4
24 6 18 10 -6 12 -1 7 23 -3 17 -3 32 2 34 4 2 11 17 14 34 5 27 2 33 -19 43
-19 8 -26 8 -29 -2 -8 -24 -45 -243 -60 -356 -8 -63 -15 -117 -16 -120 -5 -27
-40 222 -45 324 -6 115 -9 132 -28 150 -11 11 -29 19 -38 17z"/>
<path d="M1272 2013 c1 -97 -45 -448 -62 -466 -4 -5 -17 45 -30 110 -12 65
-33 161 -46 213 -13 52 -24 107 -24 123 0 42 -26 84 -60 95 -25 9 -31 8 -39
-6 -4 -9 -7 -30 -5 -47 7 -54 126 -659 135 -682 20 -52 78 -4 104 85 26 87 82
385 92 484 7 76 -4 145 -28 169 -34 34 -39 23 -37 -78z"/>
<path d="M884 2088 c-12 -18 -17 -720 -6 -737 6 -9 19 -11 33 -7 56 14 54 4
53 298 -1 304 -6 384 -26 425 -14 30 -42 41 -54 21z"/>
<path d="M1471 2075 c-98 -83 -140 -512 -65 -671 19 -40 53 -58 108 -58 69 1
126 56 150 146 22 79 15 307 -13 422 -25 102 -47 143 -89 169 -40 23 -55 22
-91 -8z m100 -62 c47 -118 67 -377 39 -493 -16 -65 -58 -115 -89 -105 -34 10
-53 67 -58 175 -6 110 17 288 49 387 23 68 42 80 59 36z"/>
<path d="M206 2063 c-3 -8 -4 -19 0 -24 3 -5 0 -9 -6 -9 -7 0 -9 -8 -5 -20 4
-11 2 -20 -4 -20 -6 0 -8 -6 -5 -14 3 -8 1 -17 -5 -20 -6 -4 -8 -13 -4 -21 3
-8 1 -15 -5 -15 -6 0 -8 -8 -6 -17 4 -15 -3 -18 -46 -19 -28 -1 -54 -5 -58 -8
-14 -15 17 -41 52 -44 20 -2 36 -7 36 -13 0 -5 -5 -9 -11 -9 -6 0 -8 -9 -4
-21 5 -16 4 -19 -6 -14 -9 6 -11 2 -7 -13 4 -12 3 -22 -1 -22 -3 0 -12 -23
-19 -52 -13 -58 -26 -70 -61 -61 -17 4 -22 2 -17 -6 4 -6 1 -11 -9 -11 -32 0
-12 -35 23 -38 17 -2 32 -9 32 -15 0 -7 -11 -49 -25 -95 -26 -89 -25 -113 7
-107 61 12 65 18 93 138 16 68 21 77 42 78 13 1 31 2 41 3 20 1 20 -4 1 -126
-7 -48 -10 -90 -6 -94 12 -12 67 18 72 40 9 43 35 178 35 182 0 2 14 4 30 4
17 0 40 9 52 20 19 17 19 20 5 26 -10 3 -28 3 -41 0 -14 -3 -27 -2 -30 2 -3 5
6 53 19 108 14 54 25 100 25 102 0 2 6 2 13 1 6 -1 24 -1 40 0 22 1 27 6 27
25 0 26 -29 44 -40 25 -6 -8 -9 -8 -14 0 -4 6 3 45 15 87 24 81 21 94 -25 99
-23 3 -27 -2 -41 -53 -34 -122 -41 -137 -61 -134 -10 1 -27 3 -36 4 -22 3 -22
5 -2 80 18 71 15 82 -24 96 -25 8 -32 8 -36 -5z m104 -231 c0 -5 -8 -42 -19
-83 -10 -41 -21 -85 -24 -99 -6 -23 -10 -25 -47 -22 -22 2 -40 6 -40 8 0 29
47 182 58 192 18 14 72 17 72 4z"/>
<path d="M2189 1455 c-116 -69 -154 -123 -76 -108 89 16 185 94 157 128 -5 6
-7 15 -3 18 14 15 -6 5 -78 -38z"/>
<path d="M2110 1332 c-21 -7 -50 -33 -50 -45 0 -6 10 -2 23 9 l22 19 -19 -22
c-10 -13 -22 -20 -27 -17 -11 7 -44 -60 -64 -131 -12 -41 -18 -109 -21 -215
-4 -178 12 -261 62 -333 27 -38 34 -42 76 -45 45 -3 48 -1 72 35 73 110 103
419 57 573 -13 42 -27 70 -35 70 -8 0 -17 8 -20 17 -5 11 -10 13 -17 6 -8 -8
-6 -20 5 -42 9 -17 16 -34 16 -38 -1 -5 4 -46 11 -92 12 -89 7 -172 -18 -306
-16 -88 -46 -165 -63 -165 -16 0 -37 56 -50 131 -34 203 -4 409 75 512 32 42
33 46 17 59 -25 22 -35 26 -52 20z m60 -756 c0 -2 -7 -7 -16 -10 -8 -3 -12 -2
-9 4 6 10 25 14 25 6z"/>
<path d="M2489 1307 c-9 -21 -16 -24 -33 -17 -28 10 -77 -10 -97 -41 -48 -73
-54 -189 -15 -291 13 -35 49 -115 80 -178 60 -120 66 -153 29 -158 -31 -5 -55
37 -52 89 3 36 0 43 -19 50 -20 8 -25 4 -36 -22 -7 -16 -11 -40 -10 -52 1 -12
3 -33 3 -45 1 -13 16 -39 35 -58 29 -29 41 -34 79 -34 63 0 93 14 113 51 24
47 7 110 -67 244 -96 175 -108 240 -63 331 32 64 45 56 42 -25 -1 -39 1 -73 4
-77 12 -11 76 17 81 36 2 10 4 56 3 101 -1 82 -1 83 -33 102 l-33 19 -11 -25z"/>
<path d="M789 1294 c-5 -6 -3 -18 6 -30 18 -24 21 -234 3 -252 -8 -8 -8 -15 1
-26 9 -11 12 -69 10 -215 -2 -226 0 -236 59 -226 19 3 37 7 41 9 3 2 33 7 66
10 84 10 105 16 105 32 0 24 -51 41 -112 37 l-58 -5 0 171 c0 156 2 171 18
172 9 1 37 3 62 5 25 1 48 3 53 3 15 2 7 39 -10 47 -10 4 -43 10 -72 13 l-55
6 0 87 c-1 47 -4 84 -8 81 -5 -2 -8 1 -8 7 0 17 24 22 102 24 74 1 87 9 65 40
-11 16 -30 18 -136 20 -78 0 -126 -3 -132 -10z"/>
<path d="M1135 1293 c-11 -11 -14 -24 -10 -42 7 -25 7 -229 1 -544 -2 -133 0
-157 12 -152 7 3 18 5 23 5 5 0 9 9 9 19 0 11 5 23 10 26 6 4 10 82 11 198 l1
192 32 -96 c52 -150 64 -170 94 -164 31 5 54 27 56 52 3 32 38 178 45 185 3 4
7 -79 8 -185 1 -105 5 -202 8 -214 6 -26 28 -29 64 -10 l24 12 -2 355 c-2 260
-5 357 -14 362 -7 4 -24 8 -38 8 -23 0 -27 -5 -38 -57 -24 -109 -83 -348 -88
-357 -3 -4 -33 83 -67 195 -59 197 -62 203 -93 216 -28 11 -34 10 -48 -4z"/>
<path d="M1623 1294 c-3 -8 -2 -22 3 -31 4 -10 8 -171 10 -357 1 -294 4 -340
17 -347 10 -6 21 -4 30 6 12 12 15 47 13 189 -2 181 5 243 18 171 12 -62 107
-338 123 -356 10 -12 22 -15 41 -10 l27 8 -2 344 c-1 189 -5 354 -8 367 -3 13
-13 22 -25 22 -27 0 -31 -44 -27 -302 2 -120 2 -216 1 -215 -1 1 -23 79 -48
172 -74 277 -99 339 -141 348 -17 3 -28 0 -32 -9z"/>
</g>
</svg>
